<svg width="790" height="51" viewBox="0 0 790 51" fill="none" xmlns="http://www.w3.org/2000/svg">
<path d="M280.24 0.739796C277.943 1.88631 276.602 4.06227 276.358 7.0378C276.028 11.0648 277.657 13.486 281.753 15.0608L283.965 15.9109L279.706 17.7335L275.448 19.5562H222.175H168.901L163.328 17.1641C156.442 14.209 149.922 12.0721 143.649 10.7141C137.427 9.36693 122.473 8.83889 115.517 9.72073C105.521 10.9882 94.0312 14.7569 86.0255 19.3947C83.893 20.6301 81.1013 22.2028 79.8218 22.8896C74.2095 25.9023 70.6147 30.6189 70.5526 35.0518L70.5162 37.6524L67.3659 38.2232C65.6332 38.5372 61.2712 39.3346 57.6726 39.9952C49.592 41.4786 35.8368 42.0631 29.4218 41.1957C19.0481 39.793 10.7048 36.6362 6.5416 32.5387C3.35397 29.4013 2.20074 26.5893 2.18833 21.9236C2.17717 17.7267 2.84095 16.3252 5.80837 14.2799C9.54317 11.7058 15.9913 13.9811 15.9913 17.873C15.9913 20.853 11.1462 23.7789 9.30289 21.9121C8.19444 20.7896 8.68137 19.721 10.66 18.9339C12.8213 18.0741 13.2915 16.5305 11.6611 15.6469C10.0934 14.7973 8.83521 15.0676 7.07587 16.6319C4.13315 19.2484 4.32363 22.9611 7.50269 24.9508C9.57156 26.2457 12.3598 26.2019 15.0365 24.8325C17.9905 23.3212 19.3839 21.0795 19.3839 17.8383C19.3839 11.1969 12.8703 8.05982 6.07299 11.4276C1.70098 13.5938 0.00545285 16.7663 5.40346e-06 22.7908C-0.00675973 30.2981 6.33937 37.1427 16.5917 40.6857C29.0484 44.9904 42.2616 45.3383 61.2806 41.8621C68.7063 40.5049 71.4834 40.1641 71.6245 40.5928C72.1235 42.1088 75.7387 46.0448 77.9552 47.4852C85.6503 52.4858 92.066 52.1306 94.8987 46.5472C97.0057 42.3943 95.1787 38.8604 90.1607 37.3831C88.0096 36.7499 86.0788 36.6497 80.3328 36.8733L73.1819 37.1517V35.7004C73.1819 30.3067 79.6169 24.9125 88.6912 22.6997C92.0624 21.8776 94.9991 21.8243 129.161 21.9663C161.357 22.1001 166.237 22.217 167.912 22.8946L169.829 23.6699L166.458 24.2495C162.098 24.9994 160.018 25.9125 157.571 28.1517C155.413 30.1259 154.28 32.9015 154.792 34.9635C156.077 40.149 165.141 43.2626 169.109 39.8815C170.404 38.7773 170.6 38.2921 170.6 36.1781C170.6 34.2495 170.353 33.4956 169.41 32.5406C167.981 31.0936 165.757 30.9574 164.605 32.2465C163.416 33.5765 164.077 34.6916 166.158 34.8671C167.542 34.9839 167.967 35.2475 168.081 36.0601C168.595 39.7092 161.92 39.5089 158.824 35.7823C157.152 33.7705 157.178 33.2302 159.043 31.0786C163.685 25.7247 173.03 25.568 184.335 30.6544C190.315 33.3455 200.553 36.8831 205.496 37.9668C207.495 38.4051 212.402 38.8861 216.401 39.0357C231.276 39.592 244.076 36.3479 267.171 26.1678L275.292 22.5886L327.488 22.448L379.685 22.3074L380.545 24.2448C381.778 27.0246 381.688 29.995 380.323 31.6021C378.185 34.1195 372.712 33.6082 371.201 30.7501C370.406 29.2448 371.982 28.0623 375.352 27.6359C378.18 27.2781 378.876 26.5429 377.984 24.8551C377.504 23.9464 377.153 23.8759 374.505 24.1562C370.591 24.5706 367.912 26.3523 367.874 28.5661C367.863 29.2472 367.644 29.3832 367.011 29.1044C361.337 26.608 354.905 26.0042 351.138 27.6143C345.673 29.9503 343.669 35.6876 346.621 40.5505C348.404 43.4875 351.787 44.3883 355.084 42.8039C358.577 41.1255 358.926 37.4726 355.889 34.3964C354.375 32.8633 354.049 32.7356 352.674 33.135C350.537 33.7557 350.415 35.136 352.356 36.7403C353.546 37.7241 353.846 38.2807 353.602 39.0575C352.917 41.2434 350.515 40.7844 349.204 38.2171C348.235 36.3184 348.285 34.8234 349.375 33.1494C351.476 29.9225 355.16 28.9382 360.756 30.1088C364.844 30.9639 368.828 32.5081 368.828 33.2377C368.828 34.0704 373.814 36.244 375.724 36.244C382.028 36.244 385.654 30.1831 383.579 23.1146L383.255 22.0103H395H406.745L406.421 23.1146C404.346 30.1831 407.973 36.244 414.276 36.244C416.186 36.244 421.172 34.0704 421.172 33.2377C421.172 32.5081 425.156 30.9639 429.244 30.1088C434.84 28.9382 438.524 29.9225 440.625 33.1494C441.715 34.8234 441.765 36.3184 440.796 38.2171C439.485 40.7844 437.083 41.2434 436.398 39.0575C436.154 38.2807 436.454 37.7241 437.644 36.7403C439.585 35.136 439.463 33.7557 437.326 33.135C435.951 32.7356 435.625 32.8633 434.111 34.3964C431.074 37.4726 431.423 41.1255 434.916 42.8039C439.413 44.9653 443.713 42.4499 444.695 37.0817C445.12 34.7653 443.992 31.5379 442.125 29.7275C438.235 25.9542 430.706 25.709 422.989 29.1044C422.356 29.3832 422.137 29.2472 422.126 28.5661C422.089 26.3523 419.409 24.5706 415.495 24.1562C412.847 23.8759 412.496 23.9464 412.016 24.8551C411.124 26.5429 411.82 27.2781 414.648 27.6359C418.018 28.0623 419.594 29.2448 418.799 30.7501C417.288 33.6082 411.815 34.1195 409.677 31.6021C408.312 29.995 408.223 27.0246 409.455 24.2448L410.315 22.3074L462.512 22.448L514.709 22.5886L522.829 26.1678C545.924 36.3479 558.724 39.592 573.599 39.0357C577.598 38.8861 582.505 38.4051 584.504 37.9668C589.447 36.8831 599.685 33.3455 605.665 30.6544C616.97 25.568 626.315 25.7247 630.957 31.0786C632.822 33.2302 632.848 33.7705 631.176 35.7823C628.08 39.5089 621.405 39.7092 621.919 36.0601C622.034 35.2475 622.458 34.9839 623.842 34.8671C625.923 34.6916 626.584 33.5765 625.395 32.2465C624.243 30.9574 622.019 31.0936 620.59 32.5406C619.647 33.4956 619.4 34.2495 619.4 36.1781C619.4 38.2921 619.596 38.7773 620.892 39.8815C624.859 43.2626 633.923 40.149 635.208 34.9635C635.72 32.9015 634.587 30.1259 632.429 28.1517C629.982 25.9125 627.902 24.9994 623.542 24.2495L620.171 23.6699L622.088 22.8946C623.763 22.217 628.643 22.1001 660.839 21.9663C695.001 21.8243 697.938 21.8776 701.309 22.6997C710.383 24.9125 716.818 30.3067 716.818 35.7004V37.1517L709.667 36.8733C703.921 36.6497 701.99 36.7499 699.839 37.3831C694.821 38.8604 692.994 42.3943 695.101 46.5472C697.934 52.1306 704.35 52.4858 712.045 47.4852C714.261 46.0448 717.876 42.1088 718.375 40.5928C718.517 40.1641 721.294 40.5049 728.719 41.8621C747.738 45.3383 760.952 44.9904 773.408 40.6857C783.661 37.1427 790.007 30.2981 790 22.7908C789.994 16.7663 788.299 13.5938 783.927 11.4276C777.13 8.05982 770.616 11.1969 770.616 17.8383C770.616 21.0795 772.01 23.3212 774.964 24.8325C777.64 26.2019 780.428 26.2457 782.497 24.9508C785.676 22.9611 785.867 19.2484 782.924 16.6319C781.165 15.0676 779.907 14.7973 778.339 15.6469C776.709 16.5305 777.179 18.0741 779.34 18.9339C781.319 19.721 781.806 20.7896 780.697 21.9121C778.854 23.7789 774.009 20.853 774.009 17.873C774.009 13.9811 780.457 11.7058 784.192 14.2799C787.159 16.3252 787.823 17.7267 787.812 21.9236C787.799 26.5893 786.646 29.4013 783.458 32.5387C779.295 36.6362 770.952 39.793 760.578 41.1957C754.163 42.0631 740.408 41.4786 732.328 39.9952C728.729 39.3346 724.367 38.5372 722.634 38.2232L719.484 37.6524L719.447 35.0518C719.385 30.6189 715.791 25.9023 710.178 22.8896C708.899 22.2028 706.107 20.6301 703.975 19.3947C695.969 14.7569 684.48 10.9882 674.483 9.72073C667.527 8.83889 652.574 9.36693 646.351 10.7141C640.078 12.0721 633.558 14.209 626.673 17.1641L621.099 19.5562H567.826H514.552L510.294 17.7335L506.035 15.9109L508.247 15.0608C512.03 13.6067 513.743 11.328 513.743 7.75245C513.743 2.19563 508.753 -1.46459 503.949 0.568214C500.639 1.96894 499.502 5.73197 501.68 8.07986C502.79 9.27644 505.114 9.64015 506.395 8.81793C507.432 8.152 506.886 6.08326 505.625 5.90191C504.15 5.68979 504.244 4.42859 505.778 3.83782C507.974 2.99213 510.351 5.17545 510.351 8.03937C510.351 10.2462 508.272 12.06 505.03 12.6827C501.601 13.3412 498.655 12.9365 492.176 10.9171C479.054 6.82721 468.253 5.1529 454.856 5.13174C434.863 5.10004 419.751 9.40942 410.726 17.7156L408.193 20.047H395H381.808L379.275 17.7156C370.249 9.40942 355.137 5.10019 335.144 5.13174C321.747 5.1527 310.947 6.82721 297.825 10.9171C291.346 12.9365 288.399 13.3412 284.97 12.6827C281.728 12.06 279.65 10.2462 279.65 8.03937C279.65 5.17545 282.026 2.99213 284.222 3.83782C285.757 4.42859 285.85 5.68979 284.375 5.90191C283.114 6.08326 282.568 8.152 283.606 8.81793C285.903 10.2922 289.366 8.26955 289.447 5.40706C289.563 1.25981 284.421 -1.34705 280.24 0.739796ZM343.868 8.27655C358.693 9.51054 369.794 13.0267 375.323 18.2396L377.31 20.113L374.94 19.8348C373.637 19.6817 352.372 19.5498 327.685 19.5416C302.347 19.5334 283.116 19.3426 283.527 19.1041C285.29 18.0792 298.997 13.5968 305.14 12.0363C319.328 8.43192 331.517 7.24854 343.868 8.27655ZM471.201 9.27045C474.859 9.80882 480.945 11.0367 484.726 11.999C490.981 13.5908 504.699 18.0728 506.473 19.1041C506.884 19.3426 487.653 19.5332 462.315 19.5416C437.628 19.5497 416.364 19.6817 415.06 19.8348L412.69 20.113L414.677 18.2396C418.617 14.5245 426.374 11.2834 435.125 9.69511C446.74 7.5871 458.799 7.44513 471.201 9.27045ZM136.086 12.7255C141.894 13.381 150.041 15.4805 155.817 17.81L160.179 19.5691L125.648 19.4401C106.655 19.3692 91.1156 19.2768 91.1152 19.2348C91.1148 19.1929 93.0229 18.4583 95.3554 17.6025C107.826 13.0268 122.835 11.2297 136.086 12.7255ZM675.233 12.9265C681.89 13.8164 688.967 15.5216 694.645 17.6034C696.977 18.4588 698.885 19.1929 698.885 19.2348C698.885 19.2767 683.345 19.3692 664.352 19.4401L629.821 19.5691L634.183 17.81C639.59 15.6293 648.231 13.3344 653.205 12.758C659.238 12.0589 669.32 12.136 675.233 12.9265ZM261.959 22.4386L268.745 22.7468L260.471 26.2952C231.316 38.7994 215.632 39.8003 192.894 30.6075C185.817 27.746 174.962 22.7019 174.962 22.2746C174.962 21.9098 253.582 22.058 261.959 22.4386ZM615.038 22.2746C615.038 22.7019 604.183 27.746 597.106 30.6075C574.368 39.8003 558.684 38.7994 529.529 26.2952L521.256 22.7468L527.314 22.4782C535.361 22.1214 615.038 21.9364 615.038 22.2746ZM88.6299 39.9525C93.1813 41.3212 94.1317 43.6568 91.3152 46.5514C88.7144 49.2245 82.2776 47.5284 77.0872 42.8026C74.4335 40.3864 74.1818 39.8722 75.484 39.5275C77.6451 38.9556 86.239 39.2334 88.6299 39.9525ZM715.204 39.8501C715.823 40.4886 710.874 44.8302 707.78 46.363C704.028 48.2222 700.384 48.2977 698.685 46.5514C698.028 45.8766 697.359 44.7722 697.197 44.0974C696.432 40.8989 700.865 39.122 709.146 39.3077C712.256 39.3775 714.983 39.6216 715.204 39.8501ZM52.6743 19.4607C50.0282 22.2576 51.3521 26.4316 55.8423 29.4485C57.9745 30.8811 60.694 31.4303 59.71 30.2296C59.4324 29.8909 58.9534 27.7501 58.6454 25.4721C58.048 21.0539 57.2229 18.8818 55.9545 18.389C54.5898 17.8586 54.011 18.0477 52.6743 19.4607ZM65.3539 18.8302C64.6472 19.219 63.5827 20.5544 62.9883 21.7979C62.1132 23.6285 61.9564 24.6043 62.1643 26.9261C62.4416 30.0235 64.4886 34.4912 66.0075 35.3145C66.7882 35.7376 66.8812 35.5566 66.8812 33.6138C66.8812 32.2201 67.5771 29.6831 68.8199 26.5462C70.8449 21.4347 71.1509 19.6594 70.1769 18.673C69.3949 17.881 66.9336 17.9612 65.3539 18.8302ZM719.823 18.673C718.849 19.6594 719.155 21.4347 721.18 26.5462C722.423 29.6831 723.119 32.2201 723.119 33.6138C723.119 35.5566 723.212 35.7376 723.993 35.3145C725.512 34.4912 727.558 30.0235 727.836 26.9261C728.28 21.9628 725.626 18.084 721.786 18.084C721.026 18.084 720.143 18.3491 719.823 18.673ZM733.893 18.4126C732.785 18.8639 731.925 21.2569 731.355 25.4721C731.047 27.7501 730.568 29.8909 730.29 30.2296C729.306 31.4303 732.026 30.8811 734.158 29.4485C738.648 26.4316 739.972 22.2576 737.326 19.4607C736.074 18.1373 735.213 17.8745 733.893 18.4126ZM50.4621 31.3222C46.4349 32.3219 44.9558 35.1904 47.2628 37.5266C48.5124 38.792 48.6693 38.8204 52.9889 38.5614C57.115 38.314 63.4886 36.6528 63.4886 35.8248C63.4886 35.4369 62.8256 35.0496 58.6069 32.9727C54.9854 31.1898 52.7887 30.7446 50.4621 31.3222ZM734.024 31.7552C732.691 32.2487 730.865 33.0742 729.965 33.5895C729.065 34.1048 727.92 34.7445 727.421 35.011C726.921 35.2774 726.512 35.6436 726.512 35.8248C726.512 36.6528 732.885 38.314 737.011 38.5614C741.306 38.8189 741.494 38.7858 742.706 37.5583C746.52 33.6958 740.197 29.4694 734.024 31.7552Z" fill="white"/>
</svg>
