<svg width="130" height="128" viewBox="0 0 130 128" fill="none" xmlns="http://www.w3.org/2000/svg">
<path d="M0.836882 39.2397C2.93369 43.4927 8.0925 44.2352 11.0547 40.6574C12.1197 39.341 12.7521 37.4508 12.4858 36.2019C12.2195 34.818 12.8519 35.2568 13.6507 37.0457C14.6825 39.3747 14.3829 44.0327 12.9185 48.6569C12.5857 49.6695 12.4858 49.737 11.454 49.5345C9.09098 49.0957 6.86104 50.6146 6.42837 52.9436C6.12882 54.5638 7.1273 56.454 8.52517 57.0615C9.35724 57.3991 9.6235 57.6691 9.49037 58.1079C7.99265 63.0359 7.62654 69.179 8.55845 73.7019C10.0562 81.0939 13.8504 87.6084 17.9109 89.7011C19.1091 90.3424 21.9381 90.8149 21.9381 90.3761C21.9381 90.0724 20.4071 89.2285 19.8746 89.2285C19.5084 89.2285 17.9442 87.5409 17.9442 87.1358C17.9442 86.967 17.7777 86.9333 17.6113 87.0346C17.4116 87.1358 17.2785 87.5746 17.2785 87.9459C17.2785 88.6547 17.2785 88.6547 16.5796 88.0134C15.6477 87.2033 14.6492 84.9418 14.6159 83.7605C14.6159 82.1066 16.3466 81.2965 16.7127 82.7479C16.8458 83.2542 16.8791 83.2542 16.9124 82.7479C16.979 81.8365 15.8474 81.3977 15.0153 81.9715C14.3829 82.4441 14.3164 82.4103 14.1167 81.4652C13.917 80.4864 12.9518 80.0138 12.9518 80.8577C12.9518 81.1615 12.8186 81.1277 12.6189 80.7902C12.153 80.0476 12.2195 77.8874 12.7521 76.571C13.3844 75.0183 14.7823 74.6133 15.6809 75.7272C16.1136 76.301 16.28 76.3347 16.28 75.9297C16.28 75.3559 15.3148 74.7145 14.3496 74.7145C13.5841 74.7145 12.4858 75.8959 12.0198 77.2461L11.687 78.2587L11.6537 77.2461C11.6205 76.6722 11.5206 75.8622 11.3875 75.3896L11.1545 74.5458L10.8882 75.3896C10.7218 75.8959 10.6885 75.5584 10.8217 74.4445C10.9215 73.4319 11.2211 72.0143 11.5206 71.3055C12.4858 68.8414 14.8822 67.5926 16.4132 68.7402C17.1121 69.2802 17.2119 70.7654 16.6129 71.508C16.1136 72.1155 14.5826 72.183 13.9502 71.5755C13.5508 71.2379 13.5508 71.2717 13.917 71.7442C14.3829 72.3518 15.8141 72.5543 16.4797 72.0818C17.1787 71.643 17.6779 70.2591 17.4449 69.4153C17.3451 68.909 16.8458 68.4027 16.1136 68.0989C15.1151 67.6938 14.7823 67.6938 13.8171 68.0989C12.0531 68.8414 10.6885 71.1029 10.1893 74.0395C10.0562 74.7483 10.0562 74.7483 9.98961 73.837C9.88976 71.4405 11.4208 68.7739 13.451 67.7276C14.4828 67.1875 15.5811 66.0062 15.6144 65.4324C15.6144 65.2298 15.1817 64.8923 14.6492 64.6898C13.451 64.251 12.2528 64.8585 10.6553 66.8162L9.59022 68.1326L10.1227 66.6475C11.0547 63.9472 14.2498 58.2429 14.9487 58.0066C15.3148 57.8716 16.047 57.8716 16.5796 58.0066C17.2452 58.1416 17.9442 58.0066 18.8095 57.5341C19.5084 57.129 20.3738 56.8253 20.6733 56.8253C21.3723 56.8253 21.4721 56.2852 20.8397 56.0489C20.5402 55.9139 20.5402 55.8464 20.873 55.8464C21.3057 55.8127 22.2376 56.724 24.4676 59.323C25.1665 60.1331 25.7989 60.5381 26.3979 60.5381C26.8639 60.5381 27.2633 60.3693 27.2633 60.2006C27.2633 59.4242 26.2648 57.9053 24.9668 56.724C23.4025 55.2726 21.4056 54.665 19.1091 54.9013C17.578 55.0701 17.5115 55.0701 18.6098 54.7325C20.0077 54.3275 22.5372 54.5638 23.8685 55.2726C25.3329 56.0152 26.8639 57.8041 27.463 59.3905C28.2285 61.4494 27.9955 64.7573 26.9638 66.2087C25.3662 68.5039 21.6718 69.3478 19.4086 67.9639C18.2437 67.2213 16.6129 64.3522 16.6129 63.0359C16.6129 61.3144 18.0107 59.1205 19.4419 58.5129C19.9744 58.2766 20.0077 58.2091 19.5417 58.2091C18.7429 58.1754 16.9124 59.8293 16.4132 61.1119C15.3814 63.5422 16.2135 66.6137 18.4101 68.5377C19.8746 69.8878 20.7066 70.1241 23.2694 69.9216C27.2633 69.6178 29.7595 66.58 29.7595 62.057C29.6929 55.0701 23.5024 50.8847 16.9124 53.4162C14.749 54.26 14.9487 54.26 14.9487 53.5174C14.9487 53.2136 14.6825 52.4373 14.3496 51.796C13.7505 50.6484 13.7505 50.6484 14.8489 47.9144C17.9442 40.0498 17.5115 33.2991 13.1515 21.6204C10.855 15.4435 10.2892 13.4521 9.95633 10.2792C9.65678 7.5452 8.99113 5.18246 8.49189 5.18246C7.95937 5.18246 8.62502 9.57041 9.6235 12.7095C10.156 14.3972 10.5554 15.8485 10.4888 15.9161C10.3224 16.0511 8.49189 11.2581 7.99265 9.40164C7.26043 6.63387 7.72639 4.03485 9.25739 2.68471C9.65678 2.31342 10.6553 1.97589 11.6205 1.87463C13.1515 1.73962 13.3512 1.80712 14.4495 2.92098C15.4147 3.89983 15.6144 4.33863 15.6144 5.58751C15.6144 7.41019 14.6159 9.09786 13.1847 9.73918L12.1197 10.2117L13.0183 10.2455C15.215 10.2792 17.2452 6.9714 16.7793 4.13611C15.9805 -0.521835 9.39052 -1.53444 6.69463 2.58345C5.96241 3.69731 5.76271 4.43989 5.69615 6.49885C5.52973 9.77293 6.06226 11.3931 10.1227 20.0002C12.9185 25.9746 14.9487 30.9701 14.9487 31.8814C14.9487 32.084 14.5493 31.7464 14.0834 31.1726C11.2211 27.7635 5.42989 27.6623 2.16819 30.9701C-0.161597 33.2991 -0.627554 36.2694 0.836882 39.2397ZM2.13491 34.3117C3.16667 31.8139 5.19691 30.4975 7.95937 30.4975C10.4556 30.4975 12.5191 31.6789 13.5176 33.7041C13.9502 34.548 13.8171 34.4467 12.7521 33.2316C11.3209 31.5439 9.88976 30.8351 7.99265 30.8351C6.49493 30.8351 4.96393 31.3414 4.96393 31.8139C4.96393 32.0164 5.33004 32.5565 5.76271 33.0628C6.42837 33.8729 6.86104 34.0417 8.95785 34.2442C10.4223 34.3792 11.4873 34.6492 11.6537 34.9192C12.2195 35.7294 11.7536 38.1934 10.855 39.4085C8.39204 42.6488 4.19843 42.2438 2.36788 38.5984C1.50254 36.8432 1.46925 35.9656 2.13491 34.3117ZM7.62654 52.2685C8.02593 51.2222 9.92304 50.3108 11.1545 50.6146C11.6205 50.7496 11.92 51.0197 11.8534 51.2222C11.7869 51.4247 11.2876 52.7748 10.7551 54.1925C10.2226 55.6439 9.65678 56.8253 9.52365 56.8253C9.35724 56.8253 8.79143 56.3865 8.25891 55.8464C7.26043 54.8001 7.06074 53.7874 7.62654 52.2685ZM9.6235 64.251C9.98961 62.9008 11.8867 59.6943 12.153 59.9643C12.2528 60.0656 11.92 60.9431 11.4208 61.9557C10.9215 62.9346 10.156 64.7235 9.72335 65.9387C9.02441 67.7951 8.95785 67.9301 9.09098 66.7825C9.19082 66.0399 9.4238 64.8923 9.6235 64.251ZM11.6537 56.589C12.3527 55.7789 12.6189 55.1038 12.6189 54.1925C12.6189 53.5174 12.7521 52.7073 12.9518 52.4373C13.1847 52.066 13.3179 52.1335 13.5841 52.8761C14.0834 54.2262 14.0501 55.4076 13.451 55.7114C13.1515 55.8802 12.3194 56.859 11.5539 57.8378C10.389 59.4242 10.2226 59.5593 10.4223 58.7154C10.5554 58.1416 11.1212 57.1965 11.6537 56.589ZM12.153 54.125C12.4525 54.125 12.2528 55.0701 11.7869 55.6776C11.3542 56.2515 11.3209 56.2177 11.6537 55.2051C11.8534 54.6313 12.0864 54.125 12.153 54.125Z" fill="#E8E27D"/>
<path d="M4.29855 102.595C4.43168 103 4.93092 103.607 5.36359 103.945C5.9294 104.418 6.09581 104.856 6.02925 105.666C5.96268 106.51 6.12909 106.983 6.79475 107.658C7.56025 108.434 7.85979 108.535 9.05797 108.367C10.2229 108.198 10.5224 108.299 11.1881 109.008C12.2864 110.223 14.3499 110.156 15.3151 108.839C15.9475 107.962 16.1139 107.928 16.946 108.232C18.8763 108.974 20.9732 107.017 20.4073 105.025C20.1411 104.114 20.2077 103.844 20.84 103.202C21.8718 102.156 21.8385 100.57 20.7735 99.5233C20.3408 99.0508 19.7417 98.6795 19.4422 98.6795C19.1093 98.6795 18.9429 98.3419 18.9429 97.6669C18.9429 95.7429 16.5466 94.2915 14.9823 95.2704C14.716 95.4392 14.0836 95.3716 13.418 95.1016C12.4528 94.6966 12.12 94.6966 11.1548 95.1016C9.79018 95.6754 9.55721 96.0467 9.1911 98.1732C9.05797 99.0845 8.85827 100.367 8.72514 100.975C8.52544 102.19 9.15781 103.202 10.4226 103.607C10.7887 103.742 11.5209 104.283 11.9868 104.789C14.0504 107.05 17.5118 104.823 16.4134 101.954C16.2803 101.582 16.014 101.684 15.2818 102.426C12.4528 105.329 8.89155 101.312 11.5874 98.2744C12.4861 97.2281 12.7191 97.1606 14.6162 97.1606C16.5466 97.1606 16.713 97.2281 17.778 98.4095C19.7084 100.536 19.7417 103.878 17.8446 105.801C16.4467 107.219 14.9157 107.827 12.7856 107.827C9.98988 107.827 7.79323 106.443 6.42864 103.742C5.56329 101.987 5.59657 98.2407 6.52849 96.4855C8.05949 93.549 11.0549 91.7938 14.5163 91.7938C16.8794 91.7601 17.2122 91.2875 15.8143 89.9374C14.6162 88.8235 12.7191 89.0598 11.7871 90.4437C11.1548 91.3888 11.0216 91.4563 10.4558 91.0512C9.79018 90.5449 8.69186 90.4437 7.79323 90.7812C7.02772 91.085 6.19566 92.8739 6.42864 93.819C6.59505 94.4266 6.4952 94.6291 6.12909 94.6291C5.82955 94.6291 5.23046 95.0004 4.79779 95.4729C3.86587 96.418 3.73274 97.8356 4.46496 98.9158C4.89764 99.5571 4.89764 99.7258 4.46496 100.603C3.89916 101.684 3.89916 101.65 4.29855 102.595Z" fill="#E8E27D"/>
<path d="M7.75972 127.337C8.52522 126.965 9.19087 125.345 8.5585 125.345C7.75972 125.345 6.96094 126.121 6.96094 126.864C6.96094 127.607 7.0275 127.674 7.75972 127.337Z" fill="#E8E27D"/>
<path d="M7.82639 113.295C8.12593 113.869 8.69174 114.308 9.32411 114.443L10.3226 114.645L9.19098 115.59C7.75982 116.772 7.52684 117.919 8.32563 119.506C8.7583 120.35 8.85815 120.856 8.62517 121.092C8.42548 121.295 8.29234 121.936 8.29234 122.544C8.29234 124.771 11.0881 126.223 12.6524 124.805C13.1516 124.366 13.4179 124.332 14.3831 124.704C16.0472 125.311 17.3785 124.67 18.2439 122.881C18.7098 121.868 18.9095 121.666 18.9428 122.172C18.9761 123.691 21.9715 125.008 22.9034 123.86C23.5025 123.117 23.2362 122.172 22.3709 122.037C21.3724 121.902 20.9397 120.248 20.9065 116.569V113.7L20.3074 115.827C18.61 121.801 14.0502 125.041 10.9882 122.442C8.05937 119.978 10.4557 114.78 15.7144 112.215C18.0774 111.034 17.911 111 13.9171 111.675C10.5888 112.215 9.85663 112.114 9.32411 110.966C8.92472 110.021 8.52532 109.954 7.82639 110.696C7.16074 111.337 7.16074 112.08 7.82639 113.295Z" fill="#E8E27D"/>
<path d="M16.0137 118.189C18.0772 117.075 18.1105 117.041 19.0757 114.442C19.6082 113.025 19.9411 111.742 19.8412 111.641C19.7414 111.506 18.6098 112.012 17.3783 112.788L15.1151 114.139L14.516 116.434C14.2165 117.716 13.9502 118.898 13.9502 119.033C13.9502 119.168 14.8821 118.797 16.0137 118.189Z" fill="#E8E27D"/>
<path d="M15.8139 77.6862C16.1468 77.3486 16.3465 77.0111 16.2466 76.9436C16.1468 76.8423 15.8805 77.1124 15.6475 77.5174C15.2148 78.2262 15.2481 78.2262 15.8139 77.6862Z" fill="#E8E27D"/>
<path d="M19.3419 93.5825C20.8729 94.8314 22.6036 97.7342 23.4356 100.434L24.2011 102.898L24.767 101.582C25.0998 100.772 25.2329 99.9281 25.0998 99.3881C24.8668 98.3755 23.6686 96.9916 23.1028 96.9916C22.8698 96.9916 22.6036 96.2828 22.4705 95.3714C22.3373 94.4938 22.0378 93.515 21.8048 93.2112C21.2723 92.5024 19.5416 92.0636 18.8426 92.4687C18.4765 92.7049 18.5764 92.9412 19.3419 93.5825Z" fill="#E8E27D"/>
<path d="M21.6387 109.987C24.2347 109.143 24.5343 108.873 24.9004 107.084C25.1001 106.105 25.2332 105.261 25.1666 105.194C25.1001 105.126 24.3346 105.363 23.4359 105.667C21.8051 106.308 21.5388 106.679 21.1394 108.907C20.9064 110.156 20.9397 110.189 21.6387 109.987Z" fill="#E8E27D"/>
<path d="M23.0026 118.662C23.1691 119.168 23.7681 119.776 24.3007 120.012C25.1327 120.383 25.2659 120.586 25.0994 121.362C24.6668 123.354 26.3642 124.974 28.4943 124.569C29.0934 124.467 29.6925 124.636 30.225 125.041C31.29 125.885 32.9874 125.885 33.7529 125.007C34.1856 124.535 34.4852 124.434 34.7181 124.67C34.8845 124.839 35.6168 125.007 36.2824 125.007C37.2476 125.007 37.7136 124.805 38.2128 124.13C38.6122 123.624 38.9117 122.948 38.9117 122.611C38.9117 122.138 39.1447 121.97 39.8104 121.97C42.1069 121.936 43.1719 119.337 41.6742 117.548C41.2748 117.042 41.3081 116.873 42.0403 116.13C43.6379 114.51 42.7392 111.506 40.6424 111.506C39.7771 111.506 39.8104 111.371 40.2763 113.498C41.0085 116.974 39.2779 121.126 36.3823 122.847C34.119 124.197 31.2235 124.332 28.7938 123.219C24.5004 121.227 23.3355 115.59 26.5639 112.181C29.3596 109.245 34.3853 110.561 35.1175 114.409C35.5835 116.974 34.1523 118.966 31.7893 119.033C29.3263 119.101 28.1947 116.265 29.9254 114.375L30.6909 113.531H29.6259C28.1282 113.531 27.396 114.004 26.9633 115.253C26.4973 116.603 27.0631 117.885 28.3611 118.527C28.8604 118.763 29.2598 119.168 29.2598 119.438C29.2598 120.079 30.8906 121.295 31.756 121.295C32.1554 121.295 32.8876 120.991 33.3535 120.62C33.8195 120.248 34.5517 119.944 35.0177 119.944C37.0146 119.944 38.2794 117.447 37.2809 115.455C36.9148 114.746 36.7484 113.835 36.8482 113.092C37.0479 111.371 35.7166 110.021 34.0525 110.223C33.1206 110.325 32.7877 110.223 32.5215 109.683C31.5563 107.827 29.6592 107.624 28.2613 109.143C27.5624 109.92 27.0298 110.156 26.1312 110.156C24.5004 110.156 23.6017 111.101 23.6017 112.822C23.6017 113.565 23.8014 114.308 24.101 114.544C24.5004 114.881 24.4671 115.05 23.7681 115.658C22.8029 116.569 22.57 117.48 23.0026 118.662Z" fill="#E8E27D"/>
<path d="M27.297 103.708C28.595 102.864 29.1609 102.257 29.7267 100.907C30.1593 99.9617 30.4589 99.1178 30.3923 99.0841C30.359 99.0166 29.5602 99.3879 28.6283 99.8942C27.1972 100.704 26.8643 101.109 26.2985 102.662C25.8992 103.675 25.5996 104.552 25.5996 104.62C25.5996 104.687 26.3651 104.282 27.297 103.708Z" fill="#E8E27D"/>
<path d="M29.3266 106.106C31.9892 106.106 35.151 107.254 37.5141 109.043C38.1132 109.515 38.7123 109.785 38.8121 109.684C38.9453 109.583 38.8454 108.874 38.6124 108.165C38.3129 107.085 38.0133 106.747 37.0482 106.444C36.3825 106.207 35.4506 106.106 34.9513 106.207C34.2191 106.376 33.853 106.207 33.1874 105.397C32.555 104.688 32.0225 104.418 31.1904 104.418C30.2252 104.418 27.9287 105.465 27.9287 105.937C27.9287 106.039 28.5611 106.106 29.3266 106.106Z" fill="#E8E27D"/>
<path d="M40.9097 107.288C41.3091 109.077 42.1411 110.326 44.2379 112.317C50.2288 117.92 60.3467 120.283 69.8656 118.258C73.6931 117.448 73.5266 117.448 73.5266 118.123C73.5266 118.393 73.9593 119.101 74.4918 119.642C75.2573 120.418 75.7566 120.62 76.8549 120.62C79.6507 120.62 81.3481 118.696 81.1151 115.794C81.0152 114.511 81.0485 114.443 82.3465 113.971C84.6763 113.161 89.2361 112.486 91.0666 112.722C91.9985 112.823 93.3298 113.296 94.062 113.735L95.3268 114.511L93.6626 114.545C91.3329 114.545 89.4357 115.827 88.3374 118.055C87.3722 120.013 87.3057 121.16 88.0046 122.916C89.1362 125.582 91.5326 127.135 94.5613 127.135C98.4221 127.135 101.384 124.097 101.717 119.81C101.95 117.009 101.284 115.085 99.4205 113.228C98.6883 112.452 98.1558 111.844 98.2556 111.844C99.0211 111.844 104.413 114.14 110.138 116.907C117.693 120.553 120.688 121.633 123.251 121.633C128.51 121.599 131.671 116.57 129.075 112.317C126.812 108.537 119.69 110.191 119.823 114.443L119.856 115.389L120.156 114.308C120.322 113.735 120.921 112.857 121.487 112.385C122.319 111.676 122.852 111.507 124.349 111.507C125.914 111.507 126.28 111.642 127.178 112.52C128.11 113.498 128.177 113.701 128.044 115.456C127.91 117.042 127.711 117.515 126.879 118.291C125.481 119.506 123.75 119.777 120.988 119.135C118.891 118.629 113.632 116.604 113.865 116.401C113.932 116.334 115.296 116.772 116.96 117.313C119.057 118.055 120.755 118.393 122.619 118.46L125.281 118.595L123.451 117.954C122.452 117.616 120.389 117.178 118.858 116.975C117.327 116.772 114.864 116.131 113.366 115.591C111.868 115.051 108.507 113.836 105.944 112.925C103.348 111.979 99.9863 110.967 98.4886 110.697C93.0968 109.65 87.7051 110.157 82.4131 112.249C80.6824 112.925 79.6839 113.161 79.4177 112.925C79.1847 112.756 78.4858 112.418 77.8201 112.216L76.6552 111.844L77.4207 109.549C79.6839 103.001 75.3572 96.993 68.3678 96.993C66.0048 96.993 63.3754 98.3769 62.0774 100.301C60.7128 102.259 60.4799 105.33 61.5116 107.423C62.377 109.144 64.6735 110.697 66.737 111.034C69.2332 111.406 72.0955 109.515 72.6613 107.119C72.8277 106.511 72.7279 106.613 72.2952 107.457C70.9639 110.056 67.7355 110.933 65.0729 109.38C63.2756 108.368 62.4768 107.119 62.3104 105.195C61.911 101.212 65.3391 98.2081 69.4994 98.8494C72.3618 99.2882 74.6583 101.043 75.7566 103.642C76.2225 104.824 76.2891 107.895 75.8564 108.975C75.7233 109.38 75.6567 108.807 75.7566 107.592C75.8564 106.376 75.7566 105.026 75.5236 104.284C74.9911 102.664 73.4268 100.841 71.8292 100.031C70.5978 99.3895 70.5645 99.3895 70.3648 99.997C70.0653 100.942 70.7642 102.123 72.1288 103.069C72.7944 103.541 73.6931 104.284 74.0925 104.722C74.9245 105.6 75.1575 106.444 74.392 105.803C74.0259 105.499 73.8928 105.668 73.7263 106.748C73.6265 107.457 73.2937 108.233 73.0274 108.469C72.6613 108.773 72.5615 109.212 72.7279 110.022C73.1605 112.317 72.8277 112.688 68.6008 114.849C66.4707 115.929 64.3406 116.941 63.8747 117.076C63.1758 117.279 63.209 117.144 64.3074 116.232C66.0381 114.747 66.6371 113.465 66.1379 112.351C65.4723 110.899 64.4405 111.473 62.7764 114.207C61.9443 115.524 59.7809 116.739 57.7174 117.042C56.5858 117.178 56.6856 117.11 58.3165 116.57C60.7461 115.794 61.7446 115.119 62.5434 113.768C63.3754 112.385 63.3754 111.473 62.5101 110.359C61.678 109.279 60.1803 109.178 59.2151 110.157C58.3498 111.034 58.3831 112.249 59.2817 113.06C60.0472 113.701 60.0472 113.701 59.4481 112.992C58.7159 112.081 58.7159 111.068 59.4814 110.393C60.2469 109.684 61.3452 109.65 62.0109 110.359C62.7098 111.034 62.6765 112.823 62.0109 113.836C61.2454 114.916 58.3165 116.232 56.7189 116.199C55.6872 116.199 55.5207 116.131 56.0533 115.895C56.5858 115.659 56.5192 115.591 55.554 115.591C54.3559 115.557 52.8248 114.882 53.9232 114.882C54.9217 114.882 56.2197 113.532 56.2197 112.553C56.2197 110.866 54.4557 109.887 53.5238 111.068C53.0911 111.574 53.1244 111.574 53.8233 111.136C54.7552 110.528 55.6872 111.034 55.8203 112.249C56.02 113.836 53.6236 115.017 51.0276 114.578C50.0291 114.41 49.8627 114.308 50.3619 114.106C50.8612 113.903 50.8945 113.768 50.5616 113.363C50.3287 113.093 49.7961 112.857 49.3635 112.857C48.598 112.857 48.5647 112.823 49.0639 112.047C49.5964 111.271 49.43 110.157 48.8309 110.157C48.6312 110.157 48.6645 110.393 48.8975 110.697C49.2636 111.136 49.2303 111.304 48.6645 111.878C48.132 112.418 47.7659 112.52 46.8007 112.351C45.4361 112.081 42.5738 110.359 42.5738 109.819C42.5738 109.617 42.7069 109.515 42.8733 109.617C43.2727 109.887 44.2379 109.515 44.2379 109.11C44.2379 108.942 43.9384 108.807 43.5723 108.807C43.2062 108.807 42.9066 108.604 42.9066 108.334C42.9066 108.064 42.6736 107.794 42.4074 107.659C42.1411 107.558 41.9081 107.186 41.9081 106.815C41.9081 106.444 41.7417 106.039 41.5753 105.938C41.3756 105.836 41.2425 105.398 41.2425 105.026C41.2425 104.621 41.1759 104.385 41.1094 104.452C40.8098 104.824 40.6767 106.376 40.9097 107.288ZM68.6008 115.794C70.032 115.119 71.1969 114.646 71.1969 114.747C71.1969 115.254 67.3361 117.313 65.5388 117.718C62.6765 118.426 61.911 118.359 64.2075 117.616C65.206 117.279 67.2029 116.469 68.6008 115.794ZM74.0592 114.443C75.4903 113.161 77.0879 112.79 78.1862 113.532C78.6189 113.836 78.6189 113.903 78.1862 114.207C77.92 114.376 77.1545 114.545 76.4888 114.545C75.6567 114.545 74.8912 114.849 74.0259 115.557C73.327 116.097 72.6613 116.57 72.4949 116.57C72.3618 116.57 71.9624 116.671 71.6295 116.772C71.2301 116.874 71.2967 116.739 71.8625 116.334C72.3285 115.996 73.327 115.152 74.0592 114.443ZM76.9215 116.131C79.2513 115.22 79.8503 115.085 80.0168 115.456C81.0152 118.123 78.0531 120.755 75.5569 119.473C74.7248 119.034 73.7263 117.684 73.9926 117.346C73.9926 117.346 75.3239 116.772 76.9215 116.131ZM75.9563 114.916C76.6552 114.916 76.6552 114.95 76.0228 115.22C75.0909 115.625 74.7914 115.625 75.0244 115.22C75.1242 115.017 75.5569 114.882 75.9563 114.916ZM89.7353 117.616C90.8336 116.131 92.4645 115.22 94.0288 115.22C95.7595 115.22 96.1588 115.76 96.1588 118.089C96.1588 120.047 96.9243 121.565 98.0227 121.835C99.0877 122.106 99.1876 121.97 99.3873 120.148C99.6868 117.616 99.2541 116.334 97.6233 114.68C96.8245 113.836 96.4251 113.296 96.7246 113.498C97.5234 113.937 98.9879 115.524 99.4871 116.536C99.7201 117.009 99.8865 118.156 99.8865 119.135C99.8199 125.346 92.9637 127.675 89.5689 122.646C88.637 121.228 88.7035 119.068 89.7353 117.616ZM95.3933 112.823C96.059 113.228 95.8593 113.296 94.9939 112.992C94.6944 112.857 94.528 112.688 94.6278 112.621C94.6944 112.52 95.0605 112.621 95.3933 112.823Z" fill="#E8E27D"/>
</svg>
