<svg width="130" height="137" viewBox="0 0 130 137" fill="none" xmlns="http://www.w3.org/2000/svg">
<path d="M90.0004 0.878572C85.6652 3.08155 84.9082 8.50156 88.5553 11.6137C89.8972 12.7327 91.824 13.3971 93.097 13.1173C94.5077 12.8376 94.0604 13.502 92.2369 14.3412C89.8628 15.4252 85.1147 15.1105 80.401 13.5719C79.3687 13.2222 79.2999 13.1173 79.5064 12.0333C79.9537 9.5506 78.4054 7.20775 76.0313 6.75317C74.3798 6.43846 72.453 7.48749 71.8337 8.95614C71.4896 9.83034 71.2144 10.1101 70.7671 9.97021C65.7437 8.39666 59.4817 8.01201 54.8712 8.99111C47.3361 10.5647 40.6956 14.551 38.5624 18.8171C37.9086 20.0759 37.4269 23.0482 37.8742 23.0482C38.1839 23.0482 39.0441 21.4397 39.0441 20.8802C39.0441 20.4955 40.7644 18.852 41.1773 18.852C41.3493 18.852 41.3837 18.6772 41.2805 18.5024C41.1773 18.2926 40.73 18.1527 40.3515 18.1527C39.629 18.1527 39.629 18.1527 40.2827 17.4184C41.1085 16.4393 43.4137 15.3902 44.6179 15.3553C46.3039 15.3553 47.1296 17.1736 45.6502 17.5582C45.1341 17.6981 45.1341 17.7331 45.6502 17.768C46.5791 17.838 47.0264 16.6491 46.4415 15.7749C45.9598 15.1105 45.9942 15.0405 46.9576 14.8307C47.9554 14.6209 48.4371 13.6069 47.5769 13.6069C47.2673 13.6069 47.3017 13.467 47.6457 13.2572C48.4027 12.7676 50.6047 12.8376 51.9466 13.3971C53.5293 14.0614 53.9422 15.5301 52.8068 16.4742C52.2218 16.9288 52.1874 17.1037 52.6003 17.1037C53.1852 17.1037 53.839 16.0896 53.839 15.0755C53.839 14.2713 52.6347 13.1173 51.2584 12.6278L50.2262 12.2781L51.2584 12.2431C51.8434 12.2082 52.6691 12.1032 53.1508 11.9634L54.011 11.7186L53.1508 11.4389C52.6347 11.264 52.9788 11.2291 54.1142 11.3689C55.1464 11.4738 56.5915 11.7885 57.314 12.1032C59.8257 13.1173 61.0988 15.635 59.9289 17.2435C59.3784 17.9778 57.8645 18.0827 57.1076 17.4533C56.4883 16.9288 56.4195 15.3203 57.0388 14.6559C57.3828 14.2363 57.3484 14.2363 56.8667 14.6209C56.2474 15.1105 56.041 16.6141 56.5227 17.3135C56.97 18.0478 58.3806 18.5723 59.2408 18.3275C59.7569 18.2226 60.273 17.6981 60.5827 16.9288C60.9956 15.8798 60.9956 15.5301 60.5827 14.516C59.8257 12.6627 57.5205 11.2291 54.5271 10.7045C53.8045 10.5647 53.8045 10.5647 54.7335 10.4947C57.1764 10.3898 59.8945 11.9983 60.9611 14.1314C61.5117 15.2154 62.7159 16.3693 63.3008 16.4043C63.5072 16.4043 63.8513 15.9497 64.0578 15.3902C64.505 14.1314 63.8857 12.8725 61.8901 11.1941L60.5483 10.0751L62.0622 10.6346C64.8147 11.6137 70.6294 14.9706 70.8703 15.7049C71.0079 16.0896 71.0079 16.8589 70.8703 17.4184C70.7327 18.1177 70.8703 18.852 71.352 19.7612C71.7649 20.4955 72.0745 21.4047 72.0745 21.7194C72.0745 22.4537 72.625 22.5586 72.8659 21.8942C73.0035 21.5795 73.0723 21.5795 73.0723 21.9292C73.1067 22.3838 72.1777 23.3629 69.5284 25.7057C68.7027 26.4401 68.2898 27.1045 68.2898 27.7339C68.2898 28.2234 68.4618 28.643 68.6339 28.643C69.4252 28.643 70.9735 27.594 72.1777 26.2303C73.6572 24.5868 74.2766 22.4887 74.0357 20.0759C73.8637 18.4674 73.8637 18.3975 74.2077 19.5514C74.6206 21.02 74.3798 23.6776 73.6572 25.0763C72.9003 26.6149 71.0767 28.2234 69.4596 28.8528C67.3608 29.6571 63.9889 29.4123 62.5095 28.3283C60.1698 26.6499 59.3096 22.7684 60.7203 20.3906C61.4772 19.1668 64.4018 17.4533 65.7437 17.4533C67.4984 17.4533 69.7349 18.922 70.3542 20.4256C70.595 20.9851 70.6638 21.02 70.6638 20.5305C70.6983 19.6913 69.0123 17.768 67.7049 17.2435C65.2276 16.1595 62.0966 17.0337 60.1354 19.3416C58.7591 20.8802 58.5183 21.7544 58.7247 24.4469C59.0344 28.643 62.131 31.2656 66.7415 31.2656C73.8637 31.1957 78.1301 24.6917 75.5496 17.768C74.6894 15.4951 74.6894 15.7049 75.4464 15.7049C75.756 15.7049 76.5474 15.4252 77.2011 15.0755C78.371 14.4461 78.371 14.4461 81.1579 15.6C89.1747 18.852 96.056 18.3975 107.961 13.8167C114.257 11.4039 116.287 10.8094 119.521 10.4598C122.308 10.1451 124.717 9.44569 124.717 8.92118C124.717 8.36169 120.244 9.06105 117.044 10.1101C115.324 10.6696 113.844 11.0892 113.775 11.0192C113.638 10.8444 118.524 8.92118 120.416 8.39666C123.237 7.62737 125.887 8.11691 127.263 9.72544C127.641 10.1451 127.985 11.1941 128.089 12.2082C128.226 13.8167 128.157 14.0265 127.022 15.1804C126.024 16.1945 125.577 16.4043 124.304 16.4043C122.446 16.4043 120.726 15.3553 120.072 13.8516L119.59 12.7327L119.556 13.6768C119.521 15.9847 122.893 18.1177 125.783 17.6282C130.532 16.7889 131.564 9.86531 127.366 7.03291C126.231 6.26362 125.474 6.05381 123.375 5.98388C120.038 5.80904 118.386 6.36852 109.612 10.6346C103.522 13.5719 98.4301 15.7049 97.5011 15.7049C97.2947 15.7049 97.6387 15.2853 98.2236 14.7958C101.699 11.7885 101.802 5.70413 98.4301 2.27729C96.056 -0.170464 93.0282 -0.660013 90.0004 0.878572ZM95.0238 2.24232C97.5699 3.32632 98.9118 5.45936 98.9118 8.36169C98.9118 10.9843 97.7075 13.1523 95.6431 14.2013C94.783 14.6559 94.8862 14.516 96.1248 13.3971C97.8452 11.8934 98.5677 10.3898 98.5677 8.39666C98.5677 6.8231 98.0516 5.21458 97.5699 5.21458C97.3635 5.21458 96.813 5.59923 96.2969 6.05381C95.4711 6.75317 95.2991 7.20775 95.0926 9.41072C94.955 10.9493 94.6797 12.0683 94.4045 12.2431C93.5787 12.8376 91.067 12.348 89.8284 11.4039C86.5253 8.81627 86.9382 4.41032 90.6542 2.48709C92.4433 1.57793 93.3379 1.54296 95.0238 2.24232ZM76.7194 8.01201C77.786 8.43163 78.715 10.4248 78.4054 11.7186C78.2677 12.2082 77.9925 12.5229 77.786 12.4529C77.5796 12.383 76.2033 11.8585 74.7582 11.299C73.2788 10.7395 72.0745 10.1451 72.0745 10.0052C72.0745 9.83034 72.5218 9.23589 73.0723 8.6764C74.1389 7.62737 75.1711 7.41756 76.7194 8.01201ZM64.505 10.1101C65.8813 10.4947 69.15 12.4879 68.8747 12.7676C68.7715 12.8725 67.8769 12.5229 66.8447 11.9983C65.8469 11.4738 64.0233 10.6696 62.7847 10.215C60.8923 9.48066 60.7547 9.41072 61.9245 9.5506C62.6815 9.6555 63.8513 9.90027 64.505 10.1101ZM72.3154 12.2431C73.1411 12.9774 73.8293 13.2572 74.7582 13.2572C75.4464 13.2572 76.2721 13.3971 76.5474 13.6069C76.9259 13.8516 76.8571 13.9915 76.1001 14.2713C74.7238 14.7958 73.5196 14.7608 73.2099 14.1314C73.0379 13.8167 72.0401 12.9425 71.0423 12.1382C69.4252 10.9143 69.2876 10.7395 70.1477 10.9493C70.7327 11.0892 71.696 11.6836 72.3154 12.2431ZM74.8271 12.7676C74.8271 13.0823 73.8637 12.8725 73.2444 12.383C72.6594 11.9284 72.6938 11.8934 73.726 12.2431C74.311 12.4529 74.8271 12.6977 74.8271 12.7676Z" fill="#E8E27D"/>
<path d="M25.4181 4.51589C25.0052 4.65576 24.3859 5.18028 24.0419 5.63486C23.5602 6.22931 23.1129 6.40415 22.2871 6.33422C21.4269 6.26428 20.9453 6.43912 20.2571 7.13848C19.4658 7.94274 19.3625 8.25745 19.5346 9.51629C19.7066 10.7402 19.6034 11.0549 18.8808 11.7542C17.6422 12.9082 17.711 15.0762 19.0529 16.0902C19.9475 16.7546 19.9819 16.9295 19.6722 17.8037C18.9153 19.8318 20.9108 22.0348 22.9408 21.4403C23.8698 21.1606 24.1451 21.2305 24.7988 21.8949C25.8654 22.9789 27.4825 22.9439 28.5491 21.825C29.0308 21.3704 29.4093 20.741 29.4093 20.4263C29.4093 20.0766 29.7534 19.9017 30.4415 19.9017C32.4027 19.9017 33.8822 17.3841 32.8844 15.7406C32.7124 15.4608 32.7812 14.7964 33.0564 14.0971C33.4693 13.083 33.4693 12.7333 33.0564 11.7193C32.4715 10.2856 32.093 10.0408 29.9254 9.65616C28.9964 9.51629 27.689 9.30649 27.0697 9.16661C25.831 8.95681 24.7988 9.6212 24.3859 10.95C24.2483 11.3346 23.6978 12.1039 23.1817 12.5935C20.8764 14.7615 23.1473 18.3981 26.0719 17.2442C26.4503 17.1043 26.3471 16.8246 25.5902 16.0553C22.6312 13.083 26.7256 9.34145 29.8222 12.1738C30.8888 13.118 30.9576 13.3628 30.9576 15.3559C30.9576 17.3841 30.8888 17.5589 29.6846 18.6779C27.5169 20.706 24.1107 20.741 22.1495 18.7478C20.7044 17.2792 20.0851 15.6706 20.0851 13.4327C20.0851 10.4954 21.4958 8.18751 24.2483 6.75383C26.0375 5.84467 29.8566 5.87964 31.6457 6.85874C34.6391 8.46726 36.4283 11.6144 36.4283 15.251C36.4627 17.7337 36.9444 18.0834 38.3207 16.6148C39.4561 15.3559 39.2152 13.3628 37.8046 12.3837C36.8412 11.7193 36.7724 11.5794 37.1852 10.9849C37.7013 10.2856 37.8046 9.13165 37.4605 8.18751C37.1508 7.38325 35.3273 6.50906 34.3639 6.75383C33.7446 6.92867 33.5381 6.82377 33.5381 6.43912C33.5381 6.12441 33.1596 5.49499 32.678 5.04041C31.7146 4.06131 30.2695 3.92144 29.1685 4.69073C28.5147 5.14531 28.3427 5.14531 27.4481 4.69073C26.3471 4.09628 26.3815 4.09628 25.4181 4.51589Z" fill="#E8E27D"/>
<path d="M0.198403 8.15264C0.576877 8.9569 2.2284 9.65626 2.2284 8.99187C2.2284 8.15264 1.43705 7.31341 0.680098 7.31341C-0.0768506 7.31341 -0.145664 7.38335 0.198403 8.15264Z" fill="#E8E27D"/>
<path d="M14.5118 8.22245C13.9269 8.53717 13.4796 9.13162 13.342 9.79601L13.1355 10.845L12.1721 9.65614C10.9679 8.15252 9.79807 7.90775 8.18096 8.74697C7.32079 9.20155 6.80469 9.30646 6.56384 9.06168C6.3574 8.85188 5.70367 8.712 5.08435 8.712C2.81351 8.712 1.33402 11.6493 2.7791 13.2928C3.22639 13.8173 3.2608 14.0971 2.88232 15.1111C2.263 16.8595 2.91673 18.2582 4.74029 19.1674C5.77249 19.6569 5.97893 19.8667 5.46283 19.9017C3.91452 19.9367 2.57266 23.0838 3.74249 24.0629C4.49944 24.6923 5.46283 24.4126 5.60045 23.5034C5.73808 22.4544 7.42401 21.9998 11.1743 21.9648H14.0989L11.9313 21.3354C5.8413 19.552 2.53825 14.7614 5.18757 11.5444C7.69926 8.46723 12.9979 10.9849 15.6128 16.5098C16.817 18.9925 16.8515 18.8177 16.1633 14.6216C15.6128 11.1248 15.716 10.3555 16.8859 9.79601C17.8493 9.37639 17.9181 8.95678 17.1611 8.22245C16.5074 7.5231 15.7504 7.5231 14.5118 8.22245Z" fill="#E8E27D"/>
<path d="M9.52217 16.8244C10.6576 18.9924 10.692 19.0274 13.3413 20.0414C14.7864 20.6009 16.0939 20.9506 16.1971 20.8457C16.3347 20.7408 15.8186 19.5519 15.0273 18.2581L13.651 15.8803L11.3113 15.2509C10.0039 14.9361 8.79963 14.6564 8.662 14.6564C8.52438 14.6564 8.90285 15.6355 9.52217 16.8244Z" fill="#E8E27D"/>
<path d="M50.8106 16.615C51.1546 16.9647 51.4987 17.1745 51.5675 17.0696C51.6707 16.9647 51.3955 16.6849 50.9826 16.4402C50.26 15.9856 50.26 16.0205 50.8106 16.615Z" fill="#E8E27D"/>
<path d="M34.6047 20.3208C33.3316 21.9293 30.3726 23.7476 27.6201 24.6218L25.1084 25.4261L26.4503 26.0206C27.276 26.3702 28.1362 26.5101 28.6867 26.3702C29.7189 26.1255 31.1296 24.8666 31.1296 24.2722C31.1296 24.0274 31.8521 23.7476 32.7811 23.6078C33.6757 23.4679 34.6735 23.1532 34.9831 22.9084C35.7057 22.3489 36.153 20.5306 35.7401 19.7963C35.4992 19.4116 35.2584 19.5165 34.6047 20.3208Z" fill="#E8E27D"/>
<path d="M17.883 22.7342C18.7432 25.4617 19.0184 25.7764 20.842 26.161C21.8398 26.3709 22.7 26.5107 22.7688 26.4408C22.8376 26.3709 22.5967 25.5666 22.2871 24.6225C21.6333 22.909 21.2549 22.6293 18.984 22.2097C17.711 21.9649 17.6766 21.9999 17.883 22.7342Z" fill="#E8E27D"/>
<path d="M9.04122 24.1677C8.52512 24.3425 7.9058 24.9719 7.66495 25.5314C7.28648 26.4056 7.08004 26.5455 6.28868 26.3707C4.25869 25.9161 2.60716 27.6994 3.02004 29.9374C3.12326 30.5668 2.95123 31.1962 2.53835 31.7557C1.67818 32.8747 1.67818 34.658 2.57276 35.4623C3.05445 35.9169 3.15767 36.2316 2.91682 36.4764C2.74479 36.6512 2.57276 37.4205 2.57276 38.1198C2.57276 39.1339 2.7792 39.6235 3.46733 40.148C3.98343 40.5676 4.67157 40.8823 5.01563 40.8823C5.49733 40.8823 5.66936 41.1271 5.66936 41.8264C5.70377 44.2392 8.35309 45.3582 10.1766 43.7846C10.6927 43.365 10.8648 43.4 11.6217 44.1693C13.2733 45.8477 16.3355 44.9036 16.3355 42.7006C16.3355 41.7915 16.4731 41.8264 14.3055 42.316C10.7616 43.0853 6.52953 41.267 4.77479 38.2248C3.39852 35.8469 3.26089 32.8047 4.39631 30.2521C6.42631 25.7412 12.1722 24.5174 15.6473 27.9092C18.6407 30.8465 17.2988 36.1267 13.3765 36.896C10.7616 37.3855 8.73156 35.8819 8.66275 33.3992C8.59393 30.8116 11.4841 29.6227 13.4109 31.441L14.271 32.2453V31.1263C14.271 29.5527 13.7894 28.7834 12.5163 28.3289C11.14 27.8393 9.83258 28.4338 9.17885 29.7975C8.938 30.322 8.52512 30.7416 8.24987 30.7416C7.59614 30.7416 6.3575 32.4551 6.3575 33.3642C6.3575 33.7838 6.66716 34.5531 7.04563 35.0427C7.42411 35.5322 7.73377 36.3015 7.73377 36.7911C7.73377 38.8891 10.2799 40.2179 12.3099 39.1689C13.0324 38.7842 13.9614 38.6094 14.7183 38.7143C16.4731 38.9241 17.8493 37.5254 17.6429 35.777C17.5397 34.7979 17.6429 34.4482 18.1934 34.1685C20.0858 33.1544 20.2922 31.1612 18.7439 29.6926C17.9526 28.9583 17.7117 28.3988 17.7117 27.4547C17.7117 25.7412 16.7483 24.7971 14.9936 24.7971C14.2366 24.7971 13.4797 25.0069 13.2388 25.3216C12.8948 25.7412 12.7227 25.7063 12.1034 24.9719C11.1744 23.9579 10.2455 23.7131 9.04122 24.1677Z" fill="#E8E27D"/>
<path d="M24.2832 28.6787C25.1433 30.0424 25.7626 30.6369 27.1389 31.2313C28.1023 31.6859 28.9625 32.0006 28.9969 31.9307C29.0657 31.8957 28.6872 31.0565 28.1711 30.0774C27.3454 28.5738 26.9325 28.2241 25.3498 27.6297C24.3176 27.21 23.423 26.8953 23.3542 26.8953C23.2854 26.8953 23.6982 27.6996 24.2832 28.6787Z" fill="#E8E27D"/>
<path d="M21.8406 30.8114C21.8406 33.6088 20.6707 36.9307 18.8472 39.4134C18.3655 40.0429 18.0902 40.6723 18.1934 40.7772C18.2967 40.9171 19.0192 40.8122 19.7417 40.5674C20.8428 40.2527 21.1868 39.938 21.4965 38.9239C21.7373 38.2245 21.8406 37.2454 21.7373 36.7209C21.5653 35.9516 21.7373 35.567 22.5631 34.8676C23.2856 34.2032 23.5609 33.6438 23.5609 32.7696C23.5609 31.7555 22.4943 29.3427 22.0126 29.3427C21.9094 29.3427 21.8406 30.0071 21.8406 30.8114Z" fill="#E8E27D"/>
<path d="M20.6364 42.9803C18.8129 43.3999 17.5398 44.2741 15.5098 46.477C9.79831 52.7712 7.38984 63.4015 9.45424 73.4023C10.28 77.4236 10.28 77.2487 9.59187 77.2487C9.31662 77.2487 8.59408 77.7033 8.04357 78.2628C7.25221 79.0671 7.04577 79.5916 7.04577 80.7455C7.04577 83.6828 9.00696 85.4662 11.9659 85.2214C13.2734 85.1165 13.3422 85.1515 13.8239 86.5152C14.6497 88.963 15.3378 93.7536 15.0969 95.6768C14.9937 96.6559 14.512 98.0546 14.0647 98.8239L13.2734 100.153L13.239 98.4043C13.239 95.9565 11.9315 93.9634 9.66068 92.8094C7.66509 91.7954 6.49527 91.7254 4.70612 92.4598C1.98798 93.6487 0.405273 96.1663 0.405273 99.3484C0.405273 103.405 3.50188 106.517 7.87153 106.867C10.7273 107.111 12.6885 106.412 14.5808 104.454C15.3722 103.684 15.9915 103.125 15.9915 103.23C15.9915 104.034 13.6519 109.699 10.8305 115.713C7.11459 123.651 6.01357 126.798 6.01357 129.491C6.04798 135.016 11.1746 138.338 15.5098 135.61C19.3634 133.232 17.6775 125.749 13.3422 125.889L12.3788 125.924L13.4798 126.239C14.0647 126.414 14.9593 127.043 15.441 127.637C16.1636 128.512 16.3356 129.071 16.3356 130.645C16.3356 132.288 16.198 132.673 15.3034 133.617C14.3056 134.596 14.0992 134.666 12.31 134.526C10.6929 134.386 10.2112 134.176 9.41984 133.302C8.1812 131.834 7.90594 130.015 8.55967 127.113C9.07577 124.91 11.1402 119.385 11.3466 119.63C11.4154 119.7 10.9681 121.133 10.4176 122.882C9.66068 125.085 9.31662 126.868 9.2478 128.826L9.11018 131.624L9.7639 129.701C10.108 128.652 10.5553 126.483 10.7617 124.875C10.9681 123.266 11.6219 120.679 12.1724 119.105C12.7229 117.532 13.9615 114 14.8905 111.307C15.8539 108.58 16.8861 105.048 17.1614 103.475C18.228 97.8098 17.7119 92.145 15.5786 86.5852C14.8905 84.7668 14.6497 83.7178 14.8905 83.438C15.0625 83.1933 15.4066 82.459 15.613 81.7596L15.9915 80.5357L18.3312 81.34C25.0061 83.7178 31.1305 79.172 31.1305 71.8287C31.1305 69.346 29.7198 66.5835 27.7586 65.2198C25.763 63.7861 22.632 63.5413 20.4988 64.6253C18.7441 65.5345 17.1614 67.9473 16.8173 70.1153C16.4388 72.7379 18.3656 75.7451 20.8085 76.3396C21.4278 76.5144 21.3246 76.4095 20.4644 75.9549C17.8151 74.5562 16.9205 71.1643 18.5032 68.3669C19.5354 66.4786 20.8085 65.6394 22.7696 65.4646C26.8296 65.045 29.8918 68.6467 29.2381 73.0176C28.7908 76.0249 27.0017 78.4376 24.3524 79.5916C23.1481 80.0811 20.0171 80.1511 18.9161 79.6965C18.5032 79.5566 19.0881 79.4867 20.3268 79.5916C21.5654 79.6965 22.9417 79.5916 23.6986 79.3468C25.3502 78.7873 27.2081 77.1438 28.0339 75.4654C28.6876 74.1716 28.6876 74.1366 28.0683 73.9268C27.1049 73.6121 25.9007 74.3464 24.9373 75.7801C24.4556 76.4795 23.6986 77.4236 23.2513 77.8432C22.3568 78.7174 21.4966 78.9622 22.1503 78.1579C22.46 77.7733 22.288 77.6334 21.1869 77.4585C20.4644 77.3536 19.673 77.004 19.4322 76.7242C19.1225 76.3396 18.6752 76.2347 17.8495 76.4095C15.5098 76.8641 15.1314 76.5144 12.9293 72.0735C11.8283 69.8356 10.7961 67.5976 10.6585 67.1081C10.452 66.3737 10.5897 66.4087 11.5186 67.5627C13.0325 69.381 14.34 70.0104 15.4754 69.4859C16.9549 68.7865 16.37 67.7025 13.5831 65.9541C12.2412 65.0799 11.0025 62.807 10.6929 60.639C10.5553 59.4501 10.6241 59.555 11.1746 61.2684C11.9659 63.8211 12.6541 64.8701 14.0303 65.7094C15.441 66.5835 16.37 66.5835 17.5054 65.6744C18.6064 64.8002 18.7097 63.2266 17.7119 62.2126C16.8173 61.3034 15.5786 61.3384 14.7529 62.2825C14.0992 63.0868 14.0992 63.0868 14.8217 62.4573C15.7507 61.688 16.7829 61.688 17.471 62.4923C18.1936 63.2966 18.228 64.4505 17.5054 65.1499C16.8173 65.8842 14.9937 65.8492 13.9615 65.1499C12.8605 64.3456 11.5186 61.2684 11.5531 59.59C11.5531 58.506 11.6219 58.3311 11.8627 58.8906C12.1036 59.4501 12.1724 59.3802 12.1724 58.3661C12.2068 57.1073 12.8949 55.4987 12.8949 56.6527C12.8949 57.7017 14.2712 59.0655 15.269 59.0655C16.9893 59.0655 17.9871 57.2122 16.7829 56.2331C16.2668 55.7785 16.2668 55.8135 16.7141 56.5478C17.3334 57.5269 16.8173 58.506 15.5786 58.6458C13.9615 58.8557 12.7573 56.338 13.2046 53.6105C13.3766 52.5614 13.4798 52.3866 13.6863 52.9111C13.8927 53.4356 14.0303 53.4706 14.4432 53.1209C14.7185 52.8762 14.9593 52.3167 14.9593 51.8621C14.9593 51.0578 14.9937 51.0229 15.7851 51.5474C16.5764 52.1069 17.7119 51.932 17.7119 51.3026C17.7119 51.0928 17.471 51.1278 17.1614 51.3725C16.7141 51.7572 16.542 51.7222 15.9571 51.1278C15.4066 50.5683 15.3034 50.1836 15.4754 49.1696C15.7507 47.7359 17.5054 44.7286 18.0559 44.7286C18.2624 44.7286 18.3656 44.8685 18.2624 45.0434C17.9871 45.463 18.3656 46.477 18.7785 46.477C18.9505 46.477 19.0881 46.1623 19.0881 45.7777C19.0881 45.393 19.2946 45.0783 19.5698 45.0783C19.8451 45.0783 20.1203 44.8335 20.258 44.5538C20.3612 44.2741 20.7397 44.0293 21.1181 44.0293C21.4966 44.0293 21.9095 43.8544 22.0127 43.6796C22.1159 43.4698 22.5632 43.3299 22.9417 43.3299C23.3546 43.3299 23.5954 43.26 23.5266 43.1901C23.1481 42.8754 21.5654 42.7355 20.6364 42.9803ZM11.9659 72.0735C12.6541 73.5771 13.1358 74.801 13.0325 74.801C12.5164 74.801 10.4176 70.7447 10.0048 68.8565C9.28221 65.8492 9.35102 65.045 10.108 67.4577C10.452 68.5068 11.2778 70.6049 11.9659 72.0735ZM13.3422 77.8082C14.6497 79.3118 15.0281 80.9903 14.2712 82.1442C13.9615 82.5988 13.8927 82.5988 13.5831 82.1442C13.411 81.8645 13.239 81.0602 13.239 80.3609C13.239 79.4867 12.9293 78.6824 12.2068 77.7733C11.6563 77.0389 11.1746 76.3396 11.1746 76.1647C11.1746 76.0249 11.0714 75.6053 10.9681 75.2556C10.8649 74.836 11.0025 74.9059 11.4154 75.5004C11.7595 75.9899 12.6197 77.0389 13.3422 77.8082ZM11.6219 80.8155C12.5508 83.2632 12.6885 83.8926 12.31 84.0675C9.59187 85.1165 6.90815 82.0044 8.2156 79.3818C8.66289 78.5076 10.0392 77.4585 10.3832 77.7383C10.3832 77.7383 10.9681 79.137 11.6219 80.8155ZM12.8605 79.8014C12.8605 80.5357 12.8261 80.5357 12.5508 79.8713C12.138 78.8922 12.138 78.5775 12.5508 78.8223C12.7573 78.9272 12.8949 79.3818 12.8605 79.8014ZM10.108 94.2781C11.6219 95.432 12.5508 97.1454 12.5508 98.7889C12.5508 100.607 12.0003 101.027 9.62628 101.027C7.63069 101.027 6.08238 101.831 5.80713 102.985C5.53188 104.104 5.6695 104.209 7.52747 104.419C10.108 104.733 11.4154 104.279 13.1014 102.565C13.9615 101.726 14.512 101.307 14.3056 101.621C13.8583 102.461 12.2412 103.999 11.209 104.524C10.7273 104.768 9.55746 104.943 8.55967 104.943C2.22883 104.873 -0.145234 97.67 4.98137 94.1032C6.42645 93.1241 8.62848 93.1941 10.108 94.2781ZM14.9937 100.223C14.5808 100.922 14.512 100.712 14.8217 99.803C14.9593 99.4883 15.1314 99.3134 15.2002 99.4184C15.3034 99.4883 15.2002 99.8729 14.9937 100.223Z" fill="#E8E27D"/>
</svg>
