<svg width="130" height="131" viewBox="0 0 130 131" fill="none" xmlns="http://www.w3.org/2000/svg">
<path d="M40.0001 135.703C44.3353 133.5 45.0923 128.08 41.4452 124.968C40.1033 123.849 38.1765 123.184 36.9035 123.464C35.4928 123.744 35.9401 123.079 37.7637 122.24C40.1377 121.156 44.8859 121.471 49.5996 123.009C50.6318 123.359 50.7006 123.464 50.4942 124.548C50.0469 127.031 51.5952 129.374 53.9692 129.828C55.6208 130.143 57.5475 129.094 58.1669 127.625C58.5109 126.751 58.7862 126.471 59.2334 126.611C64.2568 128.185 70.5188 128.569 75.1293 127.59C82.6644 126.017 89.3049 122.03 91.4381 117.764C92.0919 116.505 92.5736 113.533 92.1263 113.533C91.8166 113.533 90.9564 115.142 90.9564 115.701C90.9564 116.086 89.2361 117.729 88.8232 117.729C88.6512 117.729 88.6168 117.904 88.72 118.079C88.8232 118.289 89.2705 118.429 89.649 118.429C90.3715 118.429 90.3715 118.429 89.7178 119.163C88.892 120.142 86.5868 121.191 85.3826 121.226C83.6966 121.226 82.8709 119.408 84.3503 119.023C84.8664 118.883 84.8664 118.848 84.3503 118.813C83.4214 118.743 82.9741 119.932 83.559 120.806C84.0407 121.471 84.0063 121.541 83.0429 121.751C82.0451 121.96 81.5634 122.974 82.4236 122.974C82.7332 122.974 82.6988 123.114 82.3548 123.324C81.5978 123.814 79.3958 123.744 78.0539 123.184C76.4712 122.52 76.0583 121.051 77.1937 120.107C77.7787 119.653 77.8131 119.478 77.4002 119.478C76.8153 119.478 76.1615 120.492 76.1615 121.506C76.1615 122.31 77.3658 123.464 78.7421 123.954L79.7743 124.303L78.7421 124.338C78.1571 124.373 77.3314 124.478 76.8497 124.618L75.9895 124.863L76.8497 125.142C77.3658 125.317 77.0217 125.352 75.8863 125.212C74.8541 125.108 73.409 124.793 72.6865 124.478C70.1748 123.464 68.9017 120.946 70.0715 119.338C70.6221 118.604 72.136 118.499 72.8929 119.128C73.5122 119.653 73.581 121.261 72.9617 121.925C72.6177 122.345 72.6521 122.345 73.1338 121.96C73.7531 121.471 73.9595 119.967 73.4778 119.268C73.0305 118.534 71.6199 118.009 70.7597 118.254C70.2436 118.359 69.7275 118.883 69.4178 119.653C69.0049 120.702 69.0049 121.051 69.4178 122.065C70.1748 123.919 72.48 125.352 75.4734 125.877C76.196 126.017 76.196 126.017 75.267 126.087C72.8241 126.192 70.106 124.583 69.0393 122.45C68.4888 121.366 67.2846 120.212 66.6997 120.177C66.4932 120.177 66.1492 120.632 65.9427 121.191C65.4955 122.45 66.1148 123.709 68.1104 125.387L69.4522 126.506L67.9383 125.947C65.1858 124.968 59.3711 121.611 59.1302 120.876C58.9926 120.492 58.9926 119.722 59.1302 119.163C59.2678 118.464 59.1302 117.729 58.6485 116.82C58.2357 116.086 57.926 115.177 57.926 114.862C57.926 114.128 57.3755 114.023 57.1347 114.687C56.997 115.002 56.9282 115.002 56.9282 114.652C56.8938 114.198 57.8228 113.218 60.4721 110.876C61.2978 110.141 61.7107 109.477 61.7107 108.847C61.7107 108.358 61.5387 107.938 61.3666 107.938C60.5753 107.938 59.027 108.987 57.8228 110.351C56.3433 111.995 55.724 114.093 55.9648 116.505C56.1369 118.114 56.1369 118.184 55.7928 117.03C55.3799 115.561 55.6208 112.904 56.3433 111.505C57.1002 109.966 58.9238 108.358 60.5409 107.729C62.6397 106.924 66.0116 107.169 67.491 108.253C69.8307 109.931 70.6909 113.813 69.2802 116.191C68.5232 117.415 65.5987 119.128 64.2568 119.128C62.5021 119.128 60.2656 117.659 59.6463 116.156C59.4055 115.596 59.3367 115.561 59.3367 116.051C59.3022 116.89 60.9882 118.813 62.2956 119.338C64.7729 120.422 67.9039 119.548 69.8651 117.24C71.2414 115.701 71.4822 114.827 71.2758 112.134C70.9661 107.938 67.8695 105.316 63.259 105.316C56.1369 105.386 51.8704 111.89 54.4509 118.813C55.3111 121.086 55.3111 120.876 54.5541 120.876C54.2445 120.876 53.4531 121.156 52.7994 121.506C51.6296 122.135 51.6296 122.135 48.8426 120.981C40.8259 117.729 33.9445 118.184 22.0398 122.765C15.7433 125.177 13.7133 125.772 10.4791 126.122C7.69214 126.436 5.28367 127.136 5.28367 127.66C5.28367 128.22 9.75655 127.52 12.9564 126.471C14.6767 125.912 16.1562 125.492 16.225 125.562C16.3626 125.737 11.4769 127.66 9.58451 128.185C6.76316 128.954 4.11384 128.464 2.73758 126.856C2.3591 126.436 2.01503 125.387 1.91181 124.373C1.77419 122.765 1.843 122.555 2.97842 121.401C3.97622 120.387 4.4235 120.177 5.69655 120.177C7.55452 120.177 9.27485 121.226 9.92858 122.73L10.4103 123.849L10.4447 122.905C10.4791 120.597 7.10723 118.464 4.21706 118.953C-0.53103 119.792 -1.56323 126.716 2.63436 129.548C3.76978 130.318 4.52672 130.528 6.62554 130.597C9.96299 130.772 11.6145 130.213 20.3882 125.947C26.4782 123.009 31.5704 120.876 32.4994 120.876C32.7058 120.876 32.3618 121.296 31.7769 121.786C28.3018 124.793 28.1986 130.877 31.5704 134.304C33.9445 136.752 36.9723 137.241 40.0001 135.703ZM34.9767 134.339C32.4306 133.255 31.0887 131.122 31.0887 128.22C31.0887 125.597 32.293 123.429 34.3574 122.38C35.2175 121.925 35.1143 122.065 33.8757 123.184C32.1553 124.688 31.4328 126.192 31.4328 128.185C31.4328 129.758 31.9489 131.367 32.4306 131.367C32.637 131.367 33.1875 130.982 33.7036 130.528C34.5294 129.828 34.7014 129.374 34.9079 127.171C35.0455 125.632 35.3208 124.513 35.596 124.338C36.4218 123.744 38.9335 124.233 40.1721 125.177C43.4752 127.765 43.0623 132.171 39.3464 134.094C37.5572 135.003 36.6626 135.038 34.9767 134.339ZM53.2811 128.569C52.2145 128.15 51.2855 126.157 51.5952 124.863C51.7328 124.373 52.008 124.058 52.2145 124.128C52.4209 124.198 53.7972 124.723 55.2423 125.282C56.7218 125.842 57.926 126.436 57.926 126.576C57.926 126.751 57.4787 127.345 56.9282 127.905C55.8616 128.954 54.8294 129.164 53.2811 128.569ZM65.4955 126.471C64.1192 126.087 60.8505 124.093 61.1258 123.814C61.229 123.709 62.1236 124.058 63.1558 124.583C64.1536 125.108 65.9771 125.912 67.2158 126.366C69.1082 127.101 69.2458 127.171 68.076 127.031C67.319 126.926 66.1492 126.681 65.4955 126.471ZM57.6852 124.338C56.8594 123.604 56.1713 123.324 55.2423 123.324C54.5541 123.324 53.7284 123.184 53.4531 122.974C53.0747 122.73 53.1435 122.59 53.9004 122.31C55.2767 121.786 56.4809 121.821 56.7906 122.45C56.9626 122.765 57.9604 123.639 58.9582 124.443C60.5753 125.667 60.7129 125.842 59.8527 125.632C59.2678 125.492 58.3045 124.898 57.6852 124.338ZM55.1735 123.814C55.1735 123.499 56.1369 123.709 56.7562 124.198C57.3411 124.653 57.3067 124.688 56.2745 124.338C55.6896 124.128 55.1735 123.884 55.1735 123.814Z" fill="#E8E27D"/>
<path d="M104.581 132.066C104.994 131.926 105.613 131.402 105.957 130.947C106.439 130.353 106.886 130.178 107.712 130.248C108.572 130.318 109.054 130.143 109.742 129.443C110.534 128.639 110.637 128.324 110.465 127.066C110.293 125.842 110.396 125.527 111.118 124.828C112.357 123.674 112.288 121.506 110.946 120.492C110.052 119.827 110.017 119.652 110.327 118.778C111.084 116.75 109.088 114.547 107.058 115.142C106.129 115.421 105.854 115.351 105.201 114.687C104.134 113.603 102.517 113.638 101.45 114.757C100.968 115.211 100.59 115.841 100.59 116.156C100.59 116.505 100.246 116.68 99.5578 116.68C97.5966 116.68 96.1172 119.198 97.1149 120.841C97.287 121.121 97.2182 121.785 96.9429 122.485C96.53 123.499 96.53 123.849 96.9429 124.863C97.5278 126.296 97.9063 126.541 100.074 126.926C101.003 127.066 102.31 127.275 102.93 127.415C104.168 127.625 105.201 126.961 105.613 125.632C105.751 125.247 106.301 124.478 106.818 123.988C109.123 121.82 106.852 118.184 103.927 119.338C103.549 119.478 103.652 119.757 104.409 120.527C107.368 123.499 103.274 127.24 100.177 124.408C99.1105 123.464 99.0417 123.219 99.0417 121.226C99.0417 119.198 99.1105 119.023 100.315 117.904C102.482 115.876 105.889 115.841 107.85 117.834C109.295 119.303 109.914 120.911 109.914 123.149C109.914 126.086 108.504 128.394 105.751 129.828C103.962 130.737 100.143 130.702 98.3536 129.723C95.3602 128.115 93.5711 124.967 93.5711 121.331C93.5367 118.848 93.055 118.498 91.6787 119.967C90.5433 121.226 90.7841 123.219 92.1948 124.198C93.1582 124.863 93.227 125.002 92.8141 125.597C92.298 126.296 92.1948 127.45 92.5389 128.394C92.8485 129.199 94.6721 130.073 95.6355 129.828C96.2548 129.653 96.4612 129.758 96.4612 130.143C96.4612 130.457 96.8397 131.087 97.3214 131.541C98.2848 132.521 99.7298 132.66 100.831 131.891C101.485 131.437 101.657 131.437 102.551 131.891C103.652 132.486 103.618 132.486 104.581 132.066Z" fill="#E8E27D"/>
<path d="M129.801 128.43C129.423 127.626 127.771 126.927 127.771 127.591C127.771 128.43 128.563 129.27 129.32 129.27C130.077 129.27 130.146 129.2 129.801 128.43Z" fill="#E8E27D"/>
<path d="M115.488 128.36C116.073 128.046 116.521 127.451 116.658 126.787L116.865 125.738L117.828 126.927C119.032 128.43 120.202 128.675 121.819 127.836C122.679 127.381 123.196 127.276 123.436 127.521C123.643 127.731 124.297 127.871 124.916 127.871C127.187 127.871 128.666 124.933 127.221 123.29C126.774 122.765 126.739 122.486 127.118 121.472C127.737 119.723 127.084 118.324 125.26 117.415C124.228 116.926 124.021 116.716 124.537 116.681C126.086 116.646 127.428 113.499 126.258 112.52C125.501 111.89 124.537 112.17 124.4 113.079C124.262 114.128 122.576 114.583 118.826 114.618H115.901L118.069 115.247C124.159 117.031 127.462 121.821 124.813 125.038C122.301 128.115 117.002 125.598 114.387 120.073C113.183 117.59 113.149 117.765 113.837 121.961C114.387 125.458 114.284 126.227 113.114 126.787C112.151 127.206 112.082 127.626 112.839 128.36C113.493 129.06 114.25 129.06 115.488 128.36Z" fill="#E8E27D"/>
<path d="M120.477 119.758C119.342 117.59 119.308 117.555 116.658 116.541C115.213 115.981 113.906 115.632 113.802 115.736C113.665 115.841 114.181 117.03 114.972 118.324L116.349 120.702L118.688 121.331C119.996 121.646 121.2 121.926 121.338 121.926C121.475 121.926 121.097 120.947 120.477 119.758Z" fill="#E8E27D"/>
<path d="M79.1889 119.966C78.8448 119.617 78.5007 119.407 78.4319 119.512C78.3287 119.617 78.604 119.896 79.0168 120.141C79.7394 120.596 79.7394 120.561 79.1889 119.966Z" fill="#E8E27D"/>
<path d="M95.3949 116.26C96.6679 114.652 99.6269 112.833 102.379 111.959L104.891 111.155L103.549 110.56C102.724 110.211 101.863 110.071 101.313 110.211C100.281 110.455 98.87 111.714 98.87 112.309C98.87 112.554 98.1474 112.833 97.2184 112.973C96.3239 113.113 95.3261 113.428 95.0164 113.673C94.2939 114.232 93.8466 116.05 94.2595 116.785C94.5003 117.169 94.7412 117.064 95.3949 116.26Z" fill="#E8E27D"/>
<path d="M112.116 113.847C111.256 111.12 110.981 110.805 109.157 110.42C108.16 110.21 107.299 110.071 107.231 110.14C107.162 110.21 107.403 111.015 107.712 111.959C108.366 113.672 108.744 113.952 111.015 114.372C112.288 114.616 112.323 114.581 112.116 113.847Z" fill="#E8E27D"/>
<path d="M120.959 112.414C121.475 112.239 122.094 111.609 122.335 111.05C122.714 110.176 122.92 110.036 123.711 110.211C125.741 110.665 127.393 108.882 126.98 106.644C126.877 106.014 127.049 105.385 127.462 104.826C128.322 103.707 128.322 101.923 127.427 101.119C126.946 100.664 126.842 100.35 127.083 100.105C127.255 99.93 127.427 99.1607 127.427 98.4614C127.427 97.4473 127.221 96.9578 126.533 96.4332C126.017 96.0136 125.329 95.6989 124.984 95.6989C124.503 95.6989 124.331 95.4541 124.331 94.7548C124.296 92.342 121.647 91.223 119.823 92.7966C119.307 93.2162 119.135 93.1812 118.378 92.4119C116.727 90.7335 113.665 91.6776 113.665 93.8806C113.665 94.7898 113.527 94.7548 115.695 94.2652C119.239 93.4959 123.471 95.3143 125.225 98.3565C126.602 100.734 126.739 103.776 125.604 106.329C123.574 110.84 117.828 112.064 114.353 108.672C111.359 105.735 112.701 100.455 116.624 99.6853C119.239 99.1957 121.269 100.699 121.337 103.182C121.406 105.77 118.516 106.959 116.589 105.14L115.729 104.336V105.455C115.729 107.029 116.211 107.798 117.484 108.252C118.86 108.742 120.168 108.147 120.821 106.784C121.062 106.259 121.475 105.84 121.75 105.84C122.404 105.84 123.643 104.126 123.643 103.217C123.643 102.797 123.333 102.028 122.954 101.539C122.576 101.049 122.266 100.28 122.266 99.7902C122.266 97.6921 119.72 96.3633 117.69 97.4123C116.968 97.797 116.039 97.9718 115.282 97.8669C113.527 97.6571 112.151 99.0558 112.357 100.804C112.46 101.783 112.357 102.133 111.807 102.413C109.914 103.427 109.708 105.42 111.256 106.889C112.048 107.623 112.288 108.182 112.288 109.127C112.288 110.84 113.252 111.784 115.007 111.784C115.763 111.784 116.52 111.574 116.761 111.26C117.105 110.84 117.277 110.875 117.897 111.609C118.826 112.623 119.755 112.868 120.959 112.414Z" fill="#E8E27D"/>
<path d="M105.717 107.904C104.857 106.54 104.237 105.946 102.861 105.351C101.898 104.897 101.038 104.582 101.003 104.652C100.934 104.687 101.313 105.526 101.829 106.505C102.655 108.009 103.068 108.359 104.65 108.953C105.683 109.373 106.577 109.688 106.646 109.688C106.715 109.688 106.302 108.883 105.717 107.904Z" fill="#E8E27D"/>
<path d="M108.16 105.77C108.16 102.972 109.33 99.6503 111.153 97.1675C111.635 96.5381 111.91 95.9087 111.807 95.8038C111.704 95.6639 110.981 95.7688 110.259 96.0136C109.158 96.3283 108.814 96.643 108.504 97.6571C108.263 98.3564 108.16 99.3355 108.263 99.8601C108.435 100.629 108.263 101.014 107.437 101.713C106.715 102.378 106.439 102.937 106.439 103.811C106.439 104.826 107.506 107.238 107.988 107.238C108.091 107.238 108.16 106.574 108.16 105.77Z" fill="#E8E27D"/>
<path d="M109.364 93.6019C111.188 93.1823 112.461 92.3081 114.491 90.1051C120.202 83.8109 122.611 73.1807 120.546 63.1799C119.721 59.1586 119.721 59.3334 120.409 59.3334C120.684 59.3334 121.406 58.8788 121.957 58.3194C122.748 57.5151 122.955 56.9906 122.955 55.8366C122.955 52.8993 120.994 51.116 118.035 51.3608C116.727 51.4657 116.658 51.4307 116.177 50.067C115.351 47.6192 114.663 42.8286 114.904 40.9054C115.007 39.9263 115.489 38.5276 115.936 37.7583L116.727 36.4295L116.762 38.1779C116.762 40.6256 118.069 42.6188 120.34 43.7727C122.335 44.7868 123.505 44.8567 125.294 44.1224C128.013 42.9335 129.595 40.4158 129.595 37.2338C129.595 33.1775 126.499 30.0653 122.129 29.7157C119.273 29.4709 117.312 30.1703 115.42 32.1285C114.628 32.8977 114.009 33.4572 114.009 33.3523C114.009 32.5481 116.349 26.8833 119.17 20.8688C122.886 12.9311 123.987 9.784 123.987 7.09148C123.953 1.56656 118.826 -1.75539 114.491 0.972107C110.637 3.34992 112.323 10.833 116.658 10.6932L117.622 10.6582L116.521 10.3435C115.936 10.1686 115.041 9.53922 114.56 8.94477C113.837 8.07058 113.665 7.51109 113.665 5.93754C113.665 4.29405 113.803 3.90941 114.697 2.96527C115.695 1.98618 115.901 1.91624 117.691 2.05611C119.308 2.19598 119.789 2.40578 120.581 3.27998C121.819 4.74863 122.095 6.56696 121.441 9.46929C120.925 11.6723 118.86 17.1972 118.654 16.9524C118.585 16.8825 119.032 15.4488 119.583 13.7004C120.34 11.4974 120.684 9.71407 120.753 7.75587L120.89 4.95844L120.237 6.88167C119.893 7.93071 119.445 10.0987 119.239 11.7072C119.032 13.3158 118.379 15.9034 117.828 17.4769C117.278 19.0505 116.039 22.5822 115.11 25.2748C114.147 28.0023 113.114 31.534 112.839 33.1076C111.773 38.7723 112.289 44.4371 114.422 49.997C115.11 51.8153 115.351 52.8644 115.11 53.1441C114.938 53.3889 114.594 54.1232 114.388 54.8226L114.009 56.0465L111.669 55.2422C104.995 52.8644 98.8701 57.4102 98.8701 64.7534C98.8701 67.2362 100.281 69.9986 102.242 71.3624C104.238 72.796 107.369 73.0408 109.502 71.9568C111.257 71.0477 112.839 68.6349 113.183 66.4669C113.562 63.8443 111.635 60.837 109.192 60.2426C108.573 60.0678 108.676 60.1727 109.536 60.6272C112.185 62.026 113.08 65.4178 111.497 68.2153C110.465 70.1035 109.192 70.9427 107.231 71.1176C103.171 71.5372 100.109 67.9355 100.762 63.5645C101.21 60.5573 102.999 58.1445 105.648 56.9906C106.852 56.501 109.983 56.4311 111.084 56.8857C111.497 57.0256 110.912 57.0955 109.674 56.9906C108.435 56.8857 107.059 56.9906 106.302 57.2354C104.65 57.7948 102.792 59.4383 101.967 61.1168C101.313 62.4106 101.313 62.4456 101.932 62.6554C102.896 62.9701 104.1 62.2358 105.063 60.8021C105.545 60.1027 106.302 59.1586 106.749 58.739C107.644 57.8648 108.504 57.62 107.85 58.4243C107.541 58.8089 107.713 58.9488 108.814 59.1236C109.536 59.2285 110.328 59.5782 110.568 59.8579C110.878 60.2426 111.325 60.3475 112.151 60.1727C114.491 59.7181 114.869 60.0678 117.071 64.5087C118.172 66.7466 119.204 68.9846 119.342 69.4741C119.549 70.2084 119.411 70.1735 118.482 69.0195C116.968 67.2012 115.661 66.5718 114.525 67.0963C113.046 67.7956 113.631 68.8796 116.418 70.628C117.759 71.5022 118.998 73.7751 119.308 75.9431C119.445 77.1321 119.376 77.0272 118.826 75.3137C118.035 72.7611 117.347 71.712 115.97 70.8728C114.56 69.9986 113.631 69.9986 112.495 70.9078C111.394 71.782 111.291 73.3555 112.289 74.3696C113.183 75.2788 114.422 75.2438 115.248 74.2997C115.901 73.4954 115.901 73.4954 115.179 74.1248C114.25 74.8941 113.218 74.8941 112.53 74.0899C111.807 73.2856 111.773 72.1317 112.495 71.4323C113.183 70.698 115.007 70.7329 116.039 71.4323C117.14 72.2366 118.482 75.3137 118.448 76.9922C118.448 78.0762 118.379 78.251 118.138 77.6915C117.897 77.1321 117.828 77.202 117.828 78.2161C117.794 79.4749 117.106 81.0834 117.106 79.9295C117.106 78.8804 115.729 77.5167 114.732 77.5167C113.011 77.5167 112.013 79.37 113.218 80.3491C113.734 80.8037 113.734 80.7687 113.287 80.0344C112.667 79.0553 113.183 78.0762 114.422 77.9363C116.039 77.7265 117.243 80.2442 116.796 82.9717C116.624 84.0207 116.521 84.1956 116.314 83.671C116.108 83.1465 115.97 83.1116 115.557 83.4612C115.282 83.706 115.041 84.2655 115.041 84.7201C115.041 85.5243 115.007 85.5593 114.215 85.0348C113.424 84.4753 112.289 84.6501 112.289 85.2796C112.289 85.4894 112.53 85.4544 112.839 85.2096C113.287 84.825 113.459 84.8599 114.043 85.4544C114.594 86.0139 114.697 86.3985 114.525 87.4126C114.25 88.8463 112.495 91.8535 111.945 91.8535C111.738 91.8535 111.635 91.7136 111.738 91.5388C112.013 91.1192 111.635 90.1051 111.222 90.1051C111.05 90.1051 110.912 90.4198 110.912 90.8045C110.912 91.1891 110.706 91.5038 110.431 91.5038C110.155 91.5038 109.88 91.7486 109.743 92.0284C109.639 92.3081 109.261 92.5529 108.882 92.5529C108.504 92.5529 108.091 92.7277 107.988 92.9026C107.885 93.1124 107.437 93.2522 107.059 93.2522C106.646 93.2522 106.405 93.3222 106.474 93.3921C106.852 93.7068 108.435 93.8467 109.364 93.6019ZM118.035 64.5087C117.347 63.0051 116.865 61.7812 116.968 61.7812C117.484 61.7812 119.583 65.8374 119.996 67.7257C120.718 70.7329 120.65 71.5372 119.893 69.1244C119.549 68.0754 118.723 65.9773 118.035 64.5087ZM116.658 58.7739C115.351 57.2703 114.972 55.5919 115.729 54.4379C116.039 53.9833 116.108 53.9833 116.418 54.4379C116.59 54.7177 116.762 55.5219 116.762 56.2213C116.762 57.0955 117.071 57.8997 117.794 58.8089C118.344 59.5432 118.826 60.2426 118.826 60.4174C118.826 60.5573 118.929 60.9769 119.032 61.3266C119.136 61.7462 118.998 61.6763 118.585 61.0818C118.241 60.5923 117.381 59.5432 116.658 58.7739ZM118.379 55.7667C117.45 53.319 117.312 52.6895 117.691 52.5147C120.409 51.4657 123.092 54.5778 121.785 57.2004C121.338 58.0746 119.961 59.1236 119.617 58.8439C119.617 58.8439 119.032 57.4452 118.379 55.7667ZM117.14 56.7808C117.14 56.0465 117.174 56.0465 117.45 56.7108C117.863 57.6899 117.863 58.0047 117.45 57.7599C117.243 57.655 117.106 57.2004 117.14 56.7808ZM119.893 42.3041C118.379 41.1502 117.45 39.4367 117.45 37.7932C117.45 35.9749 118 35.5553 120.374 35.5553C122.37 35.5553 123.918 34.751 124.193 33.5971C124.469 32.4781 124.331 32.3732 122.473 32.1634C119.893 31.8487 118.585 32.3033 116.899 34.0167C116.039 34.8559 115.489 35.2756 115.695 34.9608C116.142 34.1216 117.759 32.583 118.792 32.0585C119.273 31.8137 120.443 31.6389 121.441 31.6389C127.772 31.7088 130.146 38.9122 125.019 42.4789C123.574 43.458 121.372 43.3881 119.893 42.3041ZM115.007 36.3596C115.42 35.6602 115.489 35.87 115.179 36.7792C115.041 37.0939 114.869 37.2687 114.8 37.1638C114.697 37.0939 114.8 36.7092 115.007 36.3596Z" fill="#E8E27D"/>
</svg>
