<svg width="130" height="128" viewBox="0 0 130 128" fill="none" xmlns="http://www.w3.org/2000/svg">
<path d="M129.163 88.2906C127.066 84.0377 121.907 83.2951 118.945 86.873C117.88 88.1894 117.248 90.0796 117.514 91.3284C117.78 92.7124 117.148 92.2735 116.349 90.4846C115.317 88.1556 115.617 83.4976 117.081 78.8734C117.414 77.8608 117.514 77.7933 118.546 77.9958C120.909 78.4346 123.139 76.9157 123.571 74.5867C123.871 72.9666 122.872 71.0764 121.475 70.4688C120.642 70.1313 120.376 69.8612 120.509 69.4225C122.007 64.4945 122.373 58.3514 121.441 53.8284C119.944 46.4364 116.149 39.922 112.089 37.8293C110.891 37.188 108.062 36.7154 108.062 37.1542C108.062 37.458 109.593 38.3018 110.125 38.3018C110.491 38.3018 112.056 39.9895 112.056 40.3945C112.056 40.5633 112.222 40.597 112.388 40.4958C112.588 40.3945 112.721 39.9557 112.721 39.5844C112.721 38.8756 112.721 38.8756 113.42 39.5169C114.352 40.327 115.351 42.5885 115.384 43.7699C115.384 45.4238 113.653 46.2339 113.287 44.7825C113.154 44.2762 113.121 44.2762 113.087 44.7825C113.021 45.6938 114.152 46.1326 114.984 45.5588C115.617 45.0863 115.683 45.12 115.883 46.0651C116.083 47.044 117.048 47.5165 117.048 46.6727C117.048 46.3689 117.181 46.4026 117.381 46.7402C117.847 47.4827 117.78 49.643 117.248 50.9594C116.615 52.512 115.217 52.9171 114.319 51.8032C113.886 51.2294 113.72 51.1956 113.72 51.6007C113.72 52.1745 114.685 52.8158 115.65 52.8158C116.416 52.8158 117.514 51.6344 117.98 50.2843L118.313 49.2717L118.346 50.2843C118.379 50.8581 118.479 51.6682 118.612 52.1407L118.845 52.9846L119.111 52.1407C119.278 51.6344 119.311 51.972 119.178 53.0858C119.078 54.0984 118.779 55.5161 118.479 56.2249C117.514 58.6889 115.118 59.9378 113.587 58.7901C112.888 58.2501 112.788 56.7649 113.387 56.0224C113.886 55.4148 115.417 55.3473 116.049 55.9549C116.449 56.2924 116.449 56.2586 116.083 55.7861C115.617 55.1785 114.186 54.976 113.52 55.4486C112.821 55.8874 112.322 57.2712 112.555 58.1151C112.655 58.6214 113.154 59.1277 113.886 59.4315C114.885 59.8365 115.217 59.8365 116.183 59.4315C117.947 58.6889 119.311 56.4274 119.81 53.4909C119.944 52.782 119.944 52.782 120.01 53.6934C120.11 56.0899 118.579 58.7564 116.549 59.8027C115.517 60.3428 114.419 61.5242 114.385 62.098C114.385 62.3005 114.818 62.638 115.351 62.8406C116.549 63.2794 117.747 62.6718 119.344 60.7141L120.41 59.3977L119.877 60.8829C118.945 63.5831 115.75 69.2875 115.051 69.5237C114.685 69.6588 113.953 69.6588 113.42 69.5237C112.755 69.3887 112.056 69.5237 111.19 69.9963C110.491 70.4013 109.626 70.7051 109.326 70.7051C108.627 70.7051 108.528 71.2451 109.16 71.4814C109.46 71.6164 109.46 71.6839 109.127 71.6839C108.694 71.7177 107.762 70.8063 105.532 68.2074C104.833 67.3973 104.201 66.9922 103.602 66.9922C103.136 66.9922 102.736 67.161 102.736 67.3298C102.736 68.1061 103.735 69.625 105.033 70.8063C106.597 72.2577 108.594 72.8653 110.891 72.629C112.422 72.4603 112.488 72.4603 111.39 72.7978C109.992 73.2028 107.463 72.9666 106.131 72.2577C104.667 71.5152 103.136 69.7263 102.537 68.1399C101.771 66.0809 102.004 62.7731 103.036 61.3217C104.634 59.0264 108.328 58.1826 110.591 59.5665C111.756 60.3091 113.387 63.1781 113.387 64.4945C113.387 66.2159 111.989 68.4099 110.558 69.0174C110.025 69.2537 109.992 69.3212 110.458 69.3212C111.257 69.355 113.087 67.7011 113.587 66.4184C114.618 63.9882 113.786 60.9166 111.59 58.9927C110.125 57.6425 109.293 57.4063 106.73 57.6088C102.736 57.9126 100.24 60.9504 100.24 65.4733C100.307 72.4603 106.497 76.6457 113.087 74.1142C115.251 73.2703 115.051 73.2703 115.051 74.0129C115.051 74.3167 115.317 75.093 115.65 75.7343C116.249 76.882 116.249 76.882 115.151 79.616C112.056 87.4805 112.488 94.2313 116.848 105.91C119.145 112.087 119.711 114.078 120.043 117.251C120.343 119.985 121.009 122.348 121.508 122.348C122.04 122.348 121.375 117.96 120.376 114.821C119.844 113.133 119.444 111.682 119.511 111.614C119.677 111.479 121.508 116.272 122.007 118.129C122.739 120.896 122.273 123.495 120.742 124.846C120.343 125.217 119.344 125.554 118.379 125.656C116.848 125.791 116.649 125.723 115.55 124.609C114.585 123.631 114.385 123.192 114.385 121.943C114.385 120.12 115.384 118.432 116.815 117.791L117.88 117.319L116.981 117.285C114.785 117.251 112.755 120.559 113.22 123.394C114.019 128.052 120.609 129.065 123.305 124.947C124.037 123.833 124.237 123.09 124.304 121.031C124.47 117.757 123.937 116.137 119.877 107.53C117.081 101.556 115.051 96.5602 115.051 95.6489C115.051 95.4464 115.45 95.7839 115.916 96.3577C118.779 99.7668 124.57 99.8681 127.832 96.5602C130.161 94.2313 130.627 91.2609 129.163 88.2906ZM127.865 93.2187C126.833 95.7164 124.803 97.0328 122.04 97.0328C119.544 97.0328 117.481 95.8514 116.482 93.8262C116.049 92.9824 116.183 93.0836 117.248 94.2988C118.679 95.9864 120.11 96.6953 122.007 96.6953C123.505 96.6953 125.036 96.189 125.036 95.7164C125.036 95.5139 124.67 94.9738 124.237 94.4675C123.571 93.6575 123.139 93.4887 121.042 93.2862C119.577 93.1512 118.512 92.8811 118.346 92.6111C117.78 91.801 118.246 89.337 119.145 88.1219C121.608 84.8815 125.801 85.2866 127.632 88.9319C128.497 90.6871 128.53 91.5647 127.865 93.2187ZM122.373 75.2618C121.974 76.3082 120.077 77.2195 118.845 76.9157C118.379 76.7807 118.08 76.5107 118.146 76.3082C118.213 76.1056 118.712 74.7555 119.245 73.3378C119.777 71.8865 120.343 70.7051 120.476 70.7051C120.642 70.7051 121.208 71.1439 121.741 71.6839C122.739 72.7303 122.939 73.7429 122.373 75.2618ZM120.376 63.2794C120.01 64.6295 118.113 67.8361 117.847 67.566C117.747 67.4648 118.08 66.5872 118.579 65.5746C119.078 64.5957 119.844 62.8068 120.276 61.5917C120.975 59.7352 121.042 59.6002 120.909 60.7478C120.809 61.4904 120.576 62.638 120.376 63.2794ZM118.346 70.9414C117.647 71.7514 117.381 72.4265 117.381 73.3378C117.381 74.0129 117.248 74.823 117.048 75.093C116.815 75.4643 116.682 75.3968 116.416 74.6542C115.916 73.3041 115.95 72.1227 116.549 71.8189C116.848 71.6502 117.68 70.6713 118.446 69.6925C119.611 68.1061 119.777 67.9711 119.577 68.8149C119.444 69.3887 118.879 70.3338 118.346 70.9414ZM117.847 73.4054C117.547 73.4054 117.747 72.4603 118.213 71.8527C118.646 71.2789 118.679 71.3126 118.346 72.3252C118.146 72.8991 117.913 73.4054 117.847 73.4054Z" fill="#E8E27D"/>
<path d="M125.702 24.9352C125.569 24.5302 125.07 23.9226 124.637 23.5851C124.071 23.1126 123.905 22.6738 123.971 21.8637C124.038 21.0198 123.872 20.5473 123.206 19.8722C122.44 19.0959 122.141 18.9946 120.943 19.1634C119.778 19.3322 119.478 19.2309 118.813 18.5221C117.714 17.307 115.651 17.3745 114.686 18.6909C114.053 19.5685 113.887 19.6022 113.055 19.2984C111.124 18.5558 109.028 20.5135 109.593 22.505C109.86 23.4163 109.793 23.6863 109.161 24.3277C108.129 25.374 108.162 26.9604 109.227 28.0068C109.66 28.4793 110.259 28.8506 110.559 28.8506C110.891 28.8506 111.058 29.1881 111.058 29.8632C111.058 31.7872 113.454 33.2386 115.018 32.2597C115.285 32.0909 115.917 32.1584 116.583 32.4285C117.548 32.8335 117.881 32.8335 118.846 32.4285C120.211 31.8547 120.444 31.4834 120.81 29.3569C120.943 28.4456 121.142 27.1629 121.276 26.5554C121.475 25.3403 120.843 24.3277 119.578 23.9226C119.212 23.7876 118.48 23.2476 118.014 22.7413C115.95 20.4798 112.489 22.7075 113.587 25.5765C113.72 25.9478 113.987 25.8466 114.719 25.104C117.548 22.2012 121.109 26.2178 118.413 29.2557C117.515 30.302 117.282 30.3695 115.385 30.3695C113.454 30.3695 113.288 30.302 112.223 29.1206C110.292 26.9942 110.259 23.6526 112.156 21.7287C113.554 20.311 115.085 19.7035 117.215 19.7035C120.011 19.7035 122.207 21.0874 123.572 23.7876C124.437 25.5428 124.404 29.2894 123.472 31.0446C121.941 33.9811 118.946 35.7363 115.484 35.7363C113.121 35.7701 112.788 36.2426 114.186 37.5928C115.385 38.7066 117.282 38.4703 118.214 37.0865C118.846 36.1414 118.979 36.0738 119.545 36.4789C120.211 36.9852 121.309 37.0865 122.207 36.7489C122.973 36.4451 123.805 34.6562 123.572 33.7111C123.406 33.1035 123.506 32.901 123.872 32.901C124.171 32.901 124.77 32.5297 125.203 32.0572C126.135 31.1121 126.268 29.6944 125.536 28.6143C125.103 27.973 125.103 27.8043 125.536 26.9267C126.102 25.8466 126.102 25.8803 125.702 24.9352Z" fill="#E8E27D"/>
<path d="M122.24 0.194094C121.475 0.565382 120.809 2.18555 121.442 2.18555C122.24 2.18555 123.039 1.40922 123.039 0.666642C123.039 -0.0759337 122.973 -0.14344 122.24 0.194094Z" fill="#E8E27D"/>
<path d="M122.174 14.2357C121.874 13.6618 121.308 13.223 120.676 13.088L119.677 12.8855L120.809 11.9404C122.24 10.759 122.473 9.61143 121.674 8.02502C121.242 7.18118 121.142 6.67488 121.375 6.43861C121.574 6.23609 121.708 5.59477 121.708 4.98721C121.708 2.75948 118.912 1.30809 117.348 2.72573C116.848 3.16453 116.582 3.19828 115.617 2.82699C113.953 2.21943 112.621 2.86074 111.756 4.64968C111.29 5.66228 111.09 5.8648 111.057 5.3585C111.024 3.83959 108.028 2.52321 107.097 3.67083C106.497 4.4134 106.764 5.3585 107.629 5.49351C108.628 5.62853 109.06 7.28244 109.093 10.9616V13.8306L109.693 11.7041C111.39 5.72979 115.95 2.48946 119.012 5.08847C121.941 7.55247 119.544 12.7505 114.286 15.3158C111.923 16.4971 112.089 16.5309 116.083 15.8558C119.411 15.3158 120.143 15.417 120.676 16.5646C121.075 17.5097 121.475 17.5772 122.174 16.8347C122.839 16.1934 122.839 15.4508 122.174 14.2357Z" fill="#E8E27D"/>
<path d="M113.986 9.34119C111.922 10.4551 111.889 10.4888 110.924 13.0878C110.391 14.5055 110.058 15.7881 110.158 15.8894C110.258 16.0244 111.39 15.5181 112.621 14.7417L114.884 13.3916L115.484 11.0964C115.783 9.81374 116.049 8.63237 116.049 8.49736C116.049 8.36234 115.117 8.73363 113.986 9.34119Z" fill="#E8E27D"/>
<path d="M114.186 49.8454C113.853 50.183 113.653 50.5205 113.753 50.588C113.853 50.6893 114.119 50.4193 114.352 50.0142C114.785 49.3054 114.752 49.3054 114.186 49.8454Z" fill="#E8E27D"/>
<path d="M110.658 33.948C109.127 32.6991 107.396 29.7963 106.564 27.0961L105.798 24.6321L105.232 25.9485C104.9 26.7585 104.767 27.6024 104.9 28.1424C105.133 29.155 106.331 30.5389 106.897 30.5389C107.13 30.5389 107.396 31.2477 107.529 32.1591C107.662 33.0367 107.962 34.0155 108.195 34.3193C108.727 35.0281 110.458 35.4669 111.157 35.0619C111.523 34.8256 111.423 34.5893 110.658 33.948Z" fill="#E8E27D"/>
<path d="M108.362 17.5431C105.766 18.3869 105.466 18.6569 105.1 20.4459C104.9 21.4247 104.767 22.2686 104.834 22.3361C104.9 22.4036 105.666 22.1673 106.564 21.8635C108.195 21.2222 108.462 20.8509 108.861 18.6232C109.094 17.3743 109.061 17.3405 108.362 17.5431Z" fill="#E8E27D"/>
<path d="M106.997 8.86894C106.831 8.36263 106.232 7.75507 105.699 7.5188C104.867 7.14751 104.734 6.94499 104.9 6.16866C105.333 4.17721 103.635 2.55704 101.505 2.96208C100.906 3.06334 100.307 2.89458 99.7747 2.48954C98.7096 1.6457 97.0122 1.6457 96.2467 2.52329C95.814 2.99584 95.5145 3.0971 95.2815 2.86082C95.1151 2.69206 94.3829 2.52329 93.7172 2.52329C92.752 2.52329 92.2861 2.72581 91.7868 3.40088C91.3874 3.90718 91.0879 4.58225 91.0879 4.91978C91.0879 5.39233 90.8549 5.5611 90.1893 5.5611C87.8928 5.59485 86.8277 8.19387 88.3254 9.9828C88.7248 10.4891 88.6915 10.6579 87.9593 11.4004C86.3618 13.0206 87.2604 16.0247 89.3572 16.0247C90.2226 16.0247 90.1893 16.1597 89.7233 14.0332C88.9911 10.5566 90.7218 6.40493 93.6174 4.68351C95.8806 3.33337 98.7762 3.19836 101.206 4.31222C105.499 6.30367 106.664 11.9405 103.436 15.3496C100.64 18.2861 95.6143 16.9698 94.8821 13.1219C94.4162 10.5566 95.8473 8.56516 98.2104 8.49765C100.673 8.43014 101.805 11.2654 100.074 13.1556L99.3087 13.9995H100.374C101.871 13.9995 102.604 13.5269 103.036 12.278C103.502 10.9279 102.937 9.64527 101.638 9.00395C101.139 8.76768 100.74 8.36263 100.74 8.09261C100.74 7.45129 99.109 6.23617 98.2437 6.23617C97.8443 6.23617 97.1121 6.53995 96.6461 6.91124C96.1801 7.28252 95.4479 7.58631 94.982 7.58631C92.985 7.58631 91.7203 10.0841 92.7187 12.0755C93.0849 12.7843 93.2513 13.6957 93.1514 14.4383C92.9517 16.1597 94.283 17.5098 95.9472 17.3073C96.8791 17.206 97.2119 17.3073 97.4782 17.8474C98.4434 19.7038 100.34 19.9063 101.738 18.3874C102.437 17.6111 102.97 17.3748 103.868 17.3748C105.499 17.3748 106.398 16.4297 106.398 14.7083C106.398 13.9657 106.198 13.2231 105.899 12.9869C105.499 12.6493 105.533 12.4806 106.232 11.873C107.197 10.9616 107.43 10.0503 106.997 8.86894Z" fill="#E8E27D"/>
<path d="M102.703 23.8219C101.405 24.6658 100.839 25.2733 100.274 26.6235C99.8409 27.5686 99.5413 28.4124 99.6079 28.4462C99.6412 28.5137 100.44 28.1424 101.372 27.6361C102.803 26.826 103.136 26.421 103.702 24.8683C104.101 23.8557 104.401 22.9781 104.401 22.9106C104.401 22.8431 103.635 23.2482 102.703 23.8219Z" fill="#E8E27D"/>
<path d="M100.673 21.4256C98.0105 21.4256 94.8486 20.278 92.4856 18.4891C91.8865 18.0165 91.2874 17.7465 91.1876 17.8477C91.0544 17.949 91.1543 18.6578 91.3873 19.3666C91.6868 20.4468 91.9863 20.7843 92.9515 21.0881C93.6172 21.3243 94.5491 21.4256 95.0483 21.3243C95.7806 21.1556 96.1467 21.3243 96.8123 22.1344C97.4447 22.8433 97.9772 23.1133 98.8093 23.1133C99.7745 23.1133 102.071 22.0669 102.071 21.5944C102.071 21.4931 101.439 21.4256 100.673 21.4256Z" fill="#E8E27D"/>
<path d="M89.0908 20.2433C88.6914 18.4544 87.8593 17.2055 85.7625 15.2141C79.7717 9.61099 69.6537 7.24825 60.1349 9.27345C56.3074 10.0835 56.4738 10.0835 56.4738 9.40847C56.4738 9.13844 56.0411 8.42962 55.5086 7.88956C54.7431 7.11323 54.2439 6.91071 53.1455 6.91071C50.3498 6.91071 48.6524 8.83466 48.8854 11.7375C48.9852 13.0201 48.9519 13.0876 47.6539 13.5601C45.3241 14.3702 40.7644 15.0453 38.9339 14.809C38.0019 14.7078 36.6706 14.2352 35.9384 13.7964L34.6737 13.0201L36.3378 12.9863C38.6676 12.9863 40.5647 11.7037 41.663 9.47597C42.6282 7.51827 42.6948 6.37066 41.9959 4.61548C40.8643 1.94896 38.4679 0.396297 35.4392 0.396297C31.5784 0.396297 28.6162 3.43411 28.2834 7.72079C28.0504 10.5223 28.7161 12.4463 30.5799 14.3027C31.3121 15.079 31.8447 15.6866 31.7448 15.6866C30.9793 15.6866 25.5875 13.3914 19.8629 10.6236C12.3077 6.97822 9.31231 5.89811 6.74955 5.89811C1.49089 5.93186 -1.67096 10.9611 0.925086 15.2141C3.18831 18.9944 10.3108 17.3405 10.1777 13.0876L10.1444 12.1425L9.84483 13.2226C9.67842 13.7964 9.07933 14.674 8.51353 15.1466C7.68146 15.8554 7.14894 16.0241 5.65122 16.0241C4.08694 16.0241 3.72083 15.8891 2.8222 15.0115C1.89028 14.0327 1.82372 13.8302 1.95685 12.075C2.08998 10.4886 2.28967 10.016 3.12174 9.2397C4.51961 8.02457 6.25031 7.75455 9.01277 8.39586C11.1096 8.90216 16.3682 10.9274 16.1353 11.1299C16.0687 11.1974 14.7041 10.7586 13.04 10.2185C10.9432 9.47597 9.24575 9.13844 7.38192 9.07093L4.71931 8.93592L6.54985 9.57723C7.54833 9.91477 9.61185 10.3536 11.1429 10.5561C12.6739 10.7586 15.1368 11.3999 16.6345 11.94C18.1322 12.48 21.4938 13.6952 24.0565 14.6065C26.6526 15.5516 30.0141 16.5642 31.5118 16.8342C36.9036 17.8806 42.2954 17.3743 47.5873 15.2816C49.318 14.6065 50.3165 14.3702 50.5828 14.6065C50.8158 14.7753 51.5147 15.1128 52.1803 15.3153L53.3452 15.6866L52.5797 17.9818C50.3165 24.53 54.6433 30.5381 61.6326 30.5381C63.9957 30.5381 66.625 29.1542 67.923 27.2302C69.2876 25.2725 69.5206 22.201 68.4888 20.1083C67.6235 18.3869 65.327 16.8342 63.2635 16.4967C60.7673 16.1254 57.905 18.0156 57.3392 20.4121C57.1727 21.0196 57.2726 20.9184 57.7053 20.0746C59.0366 17.4755 62.265 16.5979 64.9276 18.1506C66.7249 19.1632 67.5236 20.4121 67.6901 22.336C68.0894 26.3189 64.6613 29.323 60.501 28.6816C57.6387 28.2429 55.3422 26.4877 54.2439 23.8887C53.7779 22.7073 53.7113 19.6358 54.144 18.5556C54.2772 18.1506 54.3437 18.7244 54.2439 19.9395C54.144 21.1547 54.2439 22.5048 54.4768 23.2474C55.0094 24.8675 56.5737 26.6902 58.1712 27.5003C59.4027 28.1416 59.436 28.1416 59.6357 27.534C59.9352 26.5889 59.2363 25.4076 57.8717 24.4625C57.206 23.9899 56.3074 23.2474 55.908 22.8086C55.0759 21.931 54.843 21.0872 55.6085 21.7285C55.9746 22.0323 56.1077 21.8635 56.2741 20.7834C56.374 20.0746 56.7068 19.2982 56.973 19.0619C57.3392 18.7582 57.439 18.3194 57.2726 17.5093C56.8399 15.2141 57.1727 14.8428 61.3996 12.6825C63.5297 11.6024 65.6598 10.5898 66.1258 10.4548C66.8247 10.2523 66.7914 10.3873 65.6931 11.2987C63.9624 12.7838 63.3633 14.0664 63.8626 15.1803C64.5282 16.6317 65.56 16.0579 67.2241 13.3239C68.0562 12.0075 70.2195 10.7924 72.2831 10.4886C73.4147 10.3536 73.3148 10.4211 71.684 10.9611C69.2543 11.7375 68.2559 12.4125 67.4571 13.7627C66.625 15.1466 66.625 16.0579 67.4904 17.1718C68.3224 18.2519 69.8201 18.3531 70.7853 17.3743C71.6507 16.4967 71.6174 15.2816 70.7188 14.4715C69.9533 13.8302 69.9533 13.8302 70.5524 14.539C71.2846 15.4503 71.2846 16.4629 70.5191 17.138C69.7536 17.8468 68.6553 17.8806 67.9896 17.1718C67.2907 16.4967 67.324 14.7078 67.9896 13.6952C68.7551 12.615 71.684 11.2987 73.2815 11.3324C74.3133 11.3324 74.4797 11.3999 73.9472 11.6362C73.4147 11.8725 73.4812 11.94 74.4464 11.94C75.6446 11.9737 77.1756 12.6488 76.0773 12.6488C75.0788 12.6488 73.7808 13.9989 73.7808 14.9778C73.7808 16.6655 75.5448 17.6443 76.4767 16.4629C76.9093 15.9566 76.8761 15.9566 76.1771 16.3954C75.2452 17.003 74.3133 16.4967 74.1802 15.2816C73.9805 13.6952 76.3768 12.5138 78.9729 12.9526C79.9714 13.1213 80.1378 13.2226 79.6385 13.4251C79.1393 13.6276 79.106 13.7627 79.4388 14.1677C79.6718 14.4377 80.2043 14.674 80.637 14.674C81.4025 14.674 81.4358 14.7078 80.9365 15.4841C80.404 16.2604 80.5704 17.3743 81.1695 17.3743C81.3692 17.3743 81.3359 17.138 81.103 16.8342C80.7369 16.3954 80.7701 16.2267 81.3359 15.6529C81.8685 15.1128 82.2346 15.0115 83.1998 15.1803C84.5644 15.4503 87.4267 17.1718 87.4267 17.7118C87.4267 17.9143 87.2935 18.0156 87.1271 17.9143C86.7277 17.6443 85.7625 18.0156 85.7625 18.4206C85.7625 18.5894 86.0621 18.7244 86.4282 18.7244C86.7943 18.7244 87.0938 18.9269 87.0938 19.197C87.0938 19.467 87.3268 19.737 87.5931 19.872C87.8593 19.9733 88.0923 20.3446 88.0923 20.7159C88.0923 21.0872 88.2587 21.4922 88.4251 21.5935C88.6248 21.6947 88.758 22.1335 88.758 22.5048C88.758 22.9098 88.8245 23.1461 88.8911 23.0786C89.1906 22.7073 89.3238 21.1547 89.0908 20.2433ZM61.3996 11.7375C59.9685 12.4125 58.8036 12.8851 58.8036 12.7838C58.8036 12.2775 62.6644 10.2185 64.4616 9.81351C67.324 9.10468 68.0894 9.17219 65.7929 9.91477C64.7945 10.2523 62.7975 11.0624 61.3996 11.7375ZM55.9413 13.0876C54.5101 14.3702 52.9126 14.7415 51.8142 13.9989C51.3816 13.6952 51.3816 13.6276 51.8142 13.3239C52.0805 13.1551 52.846 12.9863 53.5117 12.9863C54.3437 12.9863 55.1092 12.6825 55.9746 11.9737C56.6735 11.4337 57.3392 10.9611 57.5056 10.9611C57.6387 10.9611 58.0381 10.8599 58.3709 10.7586C58.7703 10.6573 58.7037 10.7924 58.1379 11.1974C57.672 11.5349 56.6735 12.3788 55.9413 13.0876ZM53.079 11.3999C50.7492 12.3113 50.1501 12.4463 49.9837 12.075C48.9852 9.40847 51.9474 6.7757 54.4436 8.05833C55.2756 8.49712 56.2741 9.84726 56.0079 10.1848C56.0079 10.1848 54.6765 10.7586 53.079 11.3999ZM54.0442 12.615C53.3452 12.615 53.3452 12.5813 53.9776 12.3113C54.9095 11.9062 55.2091 11.9062 54.9761 12.3113C54.8762 12.5138 54.4436 12.6488 54.0442 12.615ZM40.2652 9.91477C39.1668 11.3999 37.536 12.3113 35.9717 12.3113C34.241 12.3113 33.8416 11.7712 33.8416 9.44222C33.8416 7.48452 33.0761 5.96561 31.9778 5.69559C30.9127 5.42556 30.8129 5.56057 30.6132 7.38326C30.3137 9.91477 30.7463 11.1974 32.3772 12.8513C33.176 13.6952 33.5754 14.2352 33.2758 14.0327C32.477 13.5939 31.0126 12.0075 30.5134 10.9949C30.2804 10.5223 30.114 9.37471 30.114 8.39586C30.1805 2.18523 37.0367 -0.143759 40.4316 4.8855C41.3635 6.30315 41.2969 8.46337 40.2652 9.91477ZM34.6071 14.7078C33.9415 14.3027 34.1412 14.2352 35.0065 14.539C35.3061 14.674 35.4725 14.8428 35.3726 14.9103C35.3061 15.0115 34.9399 14.9103 34.6071 14.7078Z" fill="#E8E27D"/>
</svg>
