<svg width="32" height="33" viewBox="0 0 32 33" fill="none" xmlns="http://www.w3.org/2000/svg">
<path fill-rule="evenodd" clip-rule="evenodd" d="M15.625 0.875C6.99519 0.875 0 7.87019 0 16.5C0 25.1298 6.99519 32.125 15.625 32.125C24.2548 32.125 31.25 25.1298 31.25 16.5C31.25 7.87019 24.2548 0.875 15.625 0.875ZM20.625 18C20.9438 18 21.3996 17.7254 21.625 17.5C21.8504 17.2746 22.125 16.8188 22.125 16.5C22.125 16.1812 21.8504 15.7254 21.625 15.5C21.3996 15.2746 20.9438 15 20.625 15H10.625C10.3062 15 9.8504 15.2746 9.625 15.5C9.3996 15.7254 9.125 16.1812 9.125 16.5C9.125 16.8188 9.3996 17.2746 9.625 17.5C9.8504 17.7254 10.3062 18 10.625 18H20.625Z" fill="#2F2204"/>
</svg>
