<svg width="1800" height="238" viewBox="0 0 1800 238" fill="none" xmlns="http://www.w3.org/2000/svg">
<path d="M0 99.6L300 52.8L600 146.4L900 216.6L1200 99.6L1500 6L1800 123V240H1500H1200H900H600H300H0V99.6Z" fill="#5C5CFF"/>
<path d="M1 238L300.833 0H600.667L900.5 119L1200.33 39.6667L1500.17 158.667L1800 119V238H1500.17H1200.33H900.5H600.667H300.833H1Z" fill="#7A7AFF"/>
<path d="M0 228.14L248.5 143.838L445 228.14L727 101.255L1042 200.688L1200 143.838L1324 184.116L1445 143.838L1573 80L1800 228.14V245H1500H1200H900H600H300H0V228.14Z" fill="#A3A3FF"/>
</svg>
