<svg width="31" height="39" viewBox="0 0 31 39" fill="none" xmlns="http://www.w3.org/2000/svg">
<path d="M4.25 38.25C3.21875 38.25 2.33625 37.8831 1.6025 37.1494C0.86875 36.4156 0.50125 35.5325 0.5 34.5V4.5C0.5 3.46875 0.8675 2.58625 1.6025 1.8525C2.3375 1.11875 3.22 0.75125 4.25 0.75H26.75C27.7812 0.75 28.6644 1.1175 29.3994 1.8525C30.1344 2.5875 30.5012 3.47 30.5 4.5V34.5C30.5 35.5312 30.1331 36.4144 29.3994 37.1494C28.6656 37.8844 27.7825 38.2513 26.75 38.25H4.25ZM13.625 17.625L18.3125 14.8125L23 17.625V4.5H13.625V17.625Z" fill="#2F2204"/>
</svg>
