<svg width="20" height="20" viewBox="0 0 20 20" fill="none" xmlns="http://www.w3.org/2000/svg">
<path d="M2.42183 14.5877L4.44767 3.09852C4.48561 2.88292 4.56565 2.6769 4.68322 2.49224C4.8008 2.30758 4.9536 2.14788 5.13291 2.02229C5.31221 1.89669 5.5145 1.80765 5.72822 1.76024C5.94194 1.71284 6.16291 1.70801 6.3785 1.74602L16.2268 3.48352C16.6621 3.56034 17.049 3.80691 17.3025 4.16901C17.556 4.53111 17.6553 4.97907 17.5785 5.41435L15.5527 16.9035C15.5147 17.1191 15.4347 17.3251 15.3171 17.5098C15.1995 17.6945 15.0467 17.8542 14.8674 17.9797C14.6881 18.1053 14.4858 18.1944 14.2721 18.2418C14.0584 18.2892 13.8374 18.294 13.6218 18.256L3.7735 16.5185C3.33822 16.4417 2.95128 16.1951 2.6978 15.833C2.44432 15.4709 2.34505 15.023 2.42183 14.5877Z" stroke="black" stroke-width="1.5"/>
<path d="M7.4407 5.31836L14.0065 6.47586M6.86154 8.60086L13.4274 9.75919M6.2832 11.8834L10.3865 12.6075" stroke="black" stroke-width="1.5" stroke-linecap="round"/>
</svg>
