<svg width="47" height="47" viewBox="0 0 47 47" fill="none" xmlns="http://www.w3.org/2000/svg">
<path d="M39.6566 7.25189C37.5556 5.12964 35.053 3.44697 32.2949 2.30201C29.5368 1.15706 26.5783 0.572741 23.592 0.583144C11.0795 0.583144 0.881576 10.7811 0.881576 23.2936C0.881576 27.304 1.93574 31.1998 3.90658 34.6373L0.698242 46.4165L12.7295 43.254C16.0524 45.0644 19.7878 46.0269 23.592 46.0269C36.1045 46.0269 46.3024 35.829 46.3024 23.3165C46.3024 17.2436 43.942 11.5373 39.6566 7.25189ZM23.592 42.1769C20.2003 42.1769 16.8774 41.2602 13.967 39.5415L13.2795 39.129L6.12949 41.0081L8.03158 34.0415L7.57324 33.3311C5.68891 30.322 4.68835 26.8439 4.68574 23.2936C4.68574 12.8894 13.1649 4.41023 23.5691 4.41023C28.6107 4.41023 33.3545 6.38106 36.9066 9.95606C38.6654 11.7068 40.0592 13.7892 41.0073 16.0827C41.9553 18.3761 42.4387 20.8349 42.4295 23.3165C42.4753 33.7206 33.9962 42.1769 23.592 42.1769ZM33.9503 28.0602C33.3774 27.7852 30.5816 26.4102 30.0774 26.204C29.5503 26.0206 29.1837 25.929 28.7941 26.479C28.4045 27.0519 27.3274 28.3352 27.0066 28.7019C26.6857 29.0915 26.342 29.1373 25.7691 28.8394C25.1962 28.5644 23.3628 27.9456 21.2087 26.0206C19.5128 24.5081 18.3899 22.6519 18.0462 22.079C17.7253 21.5061 18.0003 21.2081 18.2982 20.9102C18.5503 20.6581 18.8712 20.2456 19.1462 19.9248C19.4212 19.604 19.5357 19.3519 19.7191 18.9852C19.9024 18.5956 19.8107 18.2748 19.6732 17.9998C19.5357 17.7248 18.3899 14.929 17.9316 13.7831C17.4732 12.6831 16.992 12.8206 16.6482 12.7977H15.5482C15.1587 12.7977 14.5628 12.9352 14.0357 13.5081C13.5316 14.0811 12.0649 15.4561 12.0649 18.2519C12.0649 21.0477 14.1045 23.7519 14.3795 24.1186C14.6545 24.5081 18.3899 30.2373 24.0732 32.6894C25.4253 33.2852 26.4795 33.629 27.3045 33.8811C28.6566 34.3165 29.8941 34.2477 30.8795 34.1102C31.9795 33.9498 34.2482 32.7352 34.7066 31.4061C35.1878 30.0769 35.1878 28.954 35.0274 28.7019C34.867 28.4498 34.5232 28.3352 33.9503 28.0602Z" fill="black"/>
</svg>
